<svg xmlns="http://www.w3.org/2000/svg" xmlns:xlink="http://www.w3.org/1999/xlink" width="15" zoomAndPan="magnify" viewBox="0 0 750 749.999995" height="15" preserveAspectRatio="xMidYMid meet" version="1.0"><defs><clipPath id="0a1d4f4c69"><path d="M 59.941406 59.941406 L 689.941406 59.941406 L 689.941406 689.941406 L 59.941406 689.941406 Z M 59.941406 59.941406 " clip-rule="nonzero"/></clipPath></defs><g clip-path="url(#0a1d4f4c69)"><path fill="#ffffff" d="M 655.21875 340.160156 L 409.835938 340.160156 L 409.835938 94.777344 C 409.835938 75.5 394.277344 59.941406 375 59.941406 C 355.71875 59.941406 340.160156 75.5 340.160156 94.777344 L 340.160156 340.160156 L 94.777344 340.160156 C 75.5 340.160156 59.941406 355.71875 59.941406 375 C 59.941406 394.277344 75.5 409.835938 94.777344 409.835938 L 340.160156 409.835938 L 340.160156 655.21875 C 340.160156 674.5 355.71875 690.058594 375 690.058594 C 394.277344 690.058594 409.835938 674.5 409.835938 655.21875 L 409.835938 409.835938 L 655.21875 409.835938 C 674.5 409.835938 690.058594 394.277344 690.058594 375 C 690.058594 355.71875 674.5 340.160156 655.21875 340.160156 Z M 655.21875 340.160156 " fill-opacity="1" fill-rule="nonzero"/></g></svg>