<svg xmlns="http://www.w3.org/2000/svg" xmlns:xlink="http://www.w3.org/1999/xlink" width="35" zoomAndPan="magnify" viewBox="0 0 750 749.999995" height="35" preserveAspectRatio="xMidYMid meet" version="1.0"><defs><clipPath id="31942fdca1"><path d="M 389.269531 70.003906 L 510.800781 70.003906 L 510.800781 260.371094 L 389.269531 260.371094 Z M 389.269531 70.003906 " clip-rule="nonzero"/></clipPath><clipPath id="410a556375"><path d="M 450.035156 70.003906 C 416.476562 70.003906 389.269531 112.554688 389.269531 165.042969 C 389.269531 217.53125 416.476562 260.082031 450.035156 260.082031 C 483.59375 260.082031 510.800781 217.53125 510.800781 165.042969 C 510.800781 112.554688 483.59375 70.003906 450.035156 70.003906 Z M 450.035156 70.003906 " clip-rule="nonzero"/></clipPath><clipPath id="a4732fb89f"><path d="M 0.269531 0.00390625 L 121.800781 0.00390625 L 121.800781 190 L 0.269531 190 Z M 0.269531 0.00390625 " clip-rule="nonzero"/></clipPath><clipPath id="97380de84e"><path d="M 61.035156 0.00390625 C 27.476562 0.00390625 0.269531 42.554688 0.269531 95.042969 C 0.269531 147.53125 27.476562 190.082031 61.035156 190.082031 C 94.59375 190.082031 121.800781 147.53125 121.800781 95.042969 C 121.800781 42.554688 94.59375 0.00390625 61.035156 0.00390625 Z M 61.035156 0.00390625 " clip-rule="nonzero"/></clipPath><clipPath id="b0a5a31836"><rect x="0" width="122" y="0" height="191"/></clipPath><clipPath id="e4f4cdfc70"><path d="M 239.199219 70.003906 L 360.730469 70.003906 L 360.730469 260.371094 L 239.199219 260.371094 Z M 239.199219 70.003906 " clip-rule="nonzero"/></clipPath><clipPath id="4690043972"><path d="M 299.964844 70.003906 C 266.40625 70.003906 239.199219 112.554688 239.199219 165.042969 C 239.199219 217.53125 266.40625 260.082031 299.964844 260.082031 C 333.523438 260.082031 360.730469 217.53125 360.730469 165.042969 C 360.730469 112.554688 333.523438 70.003906 299.964844 70.003906 Z M 299.964844 70.003906 " clip-rule="nonzero"/></clipPath><clipPath id="9d8bb4722f"><path d="M 0.199219 0.00390625 L 121.730469 0.00390625 L 121.730469 190 L 0.199219 190 Z M 0.199219 0.00390625 " clip-rule="nonzero"/></clipPath><clipPath id="68e6890344"><path d="M 60.964844 0.00390625 C 27.40625 0.00390625 0.199219 42.554688 0.199219 95.042969 C 0.199219 147.53125 27.40625 190.082031 60.964844 190.082031 C 94.523438 190.082031 121.730469 147.53125 121.730469 95.042969 C 121.730469 42.554688 94.523438 0.00390625 60.964844 0.00390625 Z M 60.964844 0.00390625 " clip-rule="nonzero"/></clipPath><clipPath id="7ce4dc2c42"><rect x="0" width="122" y="0" height="191"/></clipPath><clipPath id="b56d4acc5c"><path d="M 100 187 L 233 187 L 233 364 L 100 364 Z M 100 187 " clip-rule="nonzero"/></clipPath><clipPath id="592d9f0800"><path d="M 75 215.15625 L 182.785156 166.949219 L 258.296875 335.785156 L 150.511719 383.992188 Z M 75 215.15625 " clip-rule="nonzero"/></clipPath><clipPath id="a389dd352a"><path d="M 128.894531 191.054688 C 99.128906 204.367188 91.878906 252.894531 112.699219 299.445312 C 133.519531 345.996094 174.523438 372.941406 204.289062 359.632812 C 234.050781 346.320312 241.304688 297.792969 220.484375 251.238281 C 199.664062 204.6875 158.65625 177.742188 128.894531 191.054688 Z M 128.894531 191.054688 " clip-rule="nonzero"/></clipPath><clipPath id="15a6bbb634"><path d="M 0 0 L 133 0 L 133 177 L 0 177 Z M 0 0 " clip-rule="nonzero"/></clipPath><clipPath id="ecb1128281"><path d="M -25 28.15625 L 82.785156 -20.050781 L 158.296875 148.785156 L 50.511719 196.992188 Z M -25 28.15625 " clip-rule="nonzero"/></clipPath><clipPath id="f7ab436986"><path d="M 28.894531 4.054688 C -0.871094 17.367188 -8.121094 65.894531 12.699219 112.445312 C 33.519531 158.996094 74.523438 185.941406 104.289062 172.632812 C 134.050781 159.320312 141.304688 110.792969 120.484375 64.238281 C 99.664062 17.6875 58.65625 -9.257812 28.894531 4.054688 Z M 28.894531 4.054688 " clip-rule="nonzero"/></clipPath><clipPath id="40c390789d"><rect x="0" width="133" y="0" height="177"/></clipPath><clipPath id="0d7ca598d0"><path d="M 517 187 L 650 187 L 650 364 L 517 364 Z M 517 187 " clip-rule="nonzero"/></clipPath><clipPath id="1bf6ba2dee"><path d="M 567.191406 166.96875 L 675 215.125 L 599.5625 383.996094 L 491.757812 335.835938 Z M 567.191406 166.96875 " clip-rule="nonzero"/></clipPath><clipPath id="c996d18192"><path d="M 621.09375 191.046875 C 591.324219 177.75 550.332031 204.714844 529.53125 251.273438 C 508.734375 297.835938 516.003906 346.359375 545.773438 359.660156 C 575.542969 372.957031 616.539062 345.992188 637.339844 299.433594 C 658.136719 252.871094 650.867188 204.347656 621.09375 191.046875 Z M 621.09375 191.046875 " clip-rule="nonzero"/></clipPath><clipPath id="6eaf98338d"><path d="M 0 0 L 133 0 L 133 177 L 0 177 Z M 0 0 " clip-rule="nonzero"/></clipPath><clipPath id="29b5965631"><path d="M 50.191406 -20.03125 L 158 28.125 L 82.5625 196.996094 L -25.242188 148.835938 Z M 50.191406 -20.03125 " clip-rule="nonzero"/></clipPath><clipPath id="8463911fbb"><path d="M 104.09375 4.046875 C 74.324219 -9.25 33.332031 17.714844 12.53125 64.273438 C -8.265625 110.835938 -0.996094 159.359375 28.773438 172.660156 C 58.542969 185.957031 99.539062 158.992188 120.339844 112.433594 C 141.136719 65.871094 133.867188 17.347656 104.09375 4.046875 Z M 104.09375 4.046875 " clip-rule="nonzero"/></clipPath><clipPath id="d1a029c923"><rect x="0" width="133" y="0" height="177"/></clipPath><clipPath id="e3b3012dbf"><path d="M 192.332031 456.953125 L 214.4375 456.953125 L 214.4375 479.0625 L 192.332031 479.0625 Z M 192.332031 456.953125 " clip-rule="nonzero"/></clipPath><clipPath id="a371c5046a"><path d="M 203.382812 456.953125 C 197.28125 456.953125 192.332031 461.902344 192.332031 468.007812 C 192.332031 474.113281 197.28125 479.0625 203.382812 479.0625 C 209.488281 479.0625 214.4375 474.113281 214.4375 468.007812 C 214.4375 461.902344 209.488281 456.953125 203.382812 456.953125 Z M 203.382812 456.953125 " clip-rule="nonzero"/></clipPath><clipPath id="e2506f58ab"><path d="M 0.332031 0.953125 L 22.4375 0.953125 L 22.4375 23.0625 L 0.332031 23.0625 Z M 0.332031 0.953125 " clip-rule="nonzero"/></clipPath><clipPath id="1d9928b953"><path d="M 11.382812 0.953125 C 5.28125 0.953125 0.332031 5.902344 0.332031 12.007812 C 0.332031 18.113281 5.28125 23.0625 11.382812 23.0625 C 17.488281 23.0625 22.4375 18.113281 22.4375 12.007812 C 22.4375 5.902344 17.488281 0.953125 11.382812 0.953125 Z M 11.382812 0.953125 " clip-rule="nonzero"/></clipPath><clipPath id="011ffbef13"><rect x="0" width="23" y="0" height="24"/></clipPath><clipPath id="d851f2ca9a"><path d="M 236.070312 456.953125 L 258.179688 456.953125 L 258.179688 479.0625 L 236.070312 479.0625 Z M 236.070312 456.953125 " clip-rule="nonzero"/></clipPath><clipPath id="65376aa96d"><path d="M 247.125 456.953125 C 241.019531 456.953125 236.070312 461.902344 236.070312 468.007812 C 236.070312 474.113281 241.019531 479.0625 247.125 479.0625 C 253.230469 479.0625 258.179688 474.113281 258.179688 468.007812 C 258.179688 461.902344 253.230469 456.953125 247.125 456.953125 Z M 247.125 456.953125 " clip-rule="nonzero"/></clipPath><clipPath id="4eee5a520f"><path d="M 0.0703125 0.953125 L 22.179688 0.953125 L 22.179688 23.0625 L 0.0703125 23.0625 Z M 0.0703125 0.953125 " clip-rule="nonzero"/></clipPath><clipPath id="5b30818a7e"><path d="M 11.125 0.953125 C 5.019531 0.953125 0.0703125 5.902344 0.0703125 12.007812 C 0.0703125 18.113281 5.019531 23.0625 11.125 23.0625 C 17.230469 23.0625 22.179688 18.113281 22.179688 12.007812 C 22.179688 5.902344 17.230469 0.953125 11.125 0.953125 Z M 11.125 0.953125 " clip-rule="nonzero"/></clipPath><clipPath id="9b7478ef1c"><rect x="0" width="23" y="0" height="24"/></clipPath><clipPath id="9dc7bb2ac7"><path d="M 367.164062 512.664062 L 389.269531 512.664062 L 389.269531 534.773438 L 367.164062 534.773438 Z M 367.164062 512.664062 " clip-rule="nonzero"/></clipPath><clipPath id="185c36ed39"><path d="M 378.214844 512.664062 C 372.113281 512.664062 367.164062 517.613281 367.164062 523.71875 C 367.164062 529.824219 372.113281 534.773438 378.214844 534.773438 C 384.320312 534.773438 389.269531 529.824219 389.269531 523.71875 C 389.269531 517.613281 384.320312 512.664062 378.214844 512.664062 Z M 378.214844 512.664062 " clip-rule="nonzero"/></clipPath><clipPath id="19064bfec0"><path d="M 0.164062 0.664062 L 22.269531 0.664062 L 22.269531 22.773438 L 0.164062 22.773438 Z M 0.164062 0.664062 " clip-rule="nonzero"/></clipPath><clipPath id="a127e6cc9a"><path d="M 11.214844 0.664062 C 5.113281 0.664062 0.164062 5.613281 0.164062 11.71875 C 0.164062 17.824219 5.113281 22.773438 11.214844 22.773438 C 17.320312 22.773438 22.269531 17.824219 22.269531 11.71875 C 22.269531 5.613281 17.320312 0.664062 11.214844 0.664062 Z M 11.214844 0.664062 " clip-rule="nonzero"/></clipPath><clipPath id="ba4ce307f5"><rect x="0" width="23" y="0" height="23"/></clipPath></defs><g clip-path="url(#31942fdca1)"><g clip-path="url(#410a556375)"><g transform="matrix(1, 0, 0, 1, 389, 70)"><g clip-path="url(#b0a5a31836)"><g clip-path="url(#a4732fb89f)"><g clip-path="url(#97380de84e)"><path fill="#8b2e58" d="M 0.269531 0.00390625 L 121.800781 0.00390625 L 121.800781 189.894531 L 0.269531 189.894531 Z M 0.269531 0.00390625 " fill-opacity="1" fill-rule="nonzero"/></g></g></g></g></g></g><g clip-path="url(#e4f4cdfc70)"><g clip-path="url(#4690043972)"><g transform="matrix(1, 0, 0, 1, 239, 70)"><g clip-path="url(#7ce4dc2c42)"><g clip-path="url(#9d8bb4722f)"><g clip-path="url(#68e6890344)"><path fill="#8b2e58" d="M 0.199219 0.00390625 L 121.730469 0.00390625 L 121.730469 189.894531 L 0.199219 189.894531 Z M 0.199219 0.00390625 " fill-opacity="1" fill-rule="nonzero"/></g></g></g></g></g></g><g clip-path="url(#b56d4acc5c)"><g clip-path="url(#592d9f0800)"><g clip-path="url(#a389dd352a)"><g transform="matrix(1, 0, 0, 1, 100, 187)"><g clip-path="url(#40c390789d)"><g clip-path="url(#15a6bbb634)"><g clip-path="url(#ecb1128281)"><g clip-path="url(#f7ab436986)"><path fill="#8b2e58" d="M -25 28.15625 L 82.785156 -20.050781 L 158.105469 148.363281 L 50.324219 196.570312 Z M -25 28.15625 " fill-opacity="1" fill-rule="nonzero"/></g></g></g></g></g></g></g></g><g clip-path="url(#0d7ca598d0)"><g clip-path="url(#1bf6ba2dee)"><g clip-path="url(#c996d18192)"><g transform="matrix(1, 0, 0, 1, 517, 187)"><g clip-path="url(#d1a029c923)"><g clip-path="url(#6eaf98338d)"><g clip-path="url(#29b5965631)"><g clip-path="url(#8463911fbb)"><path fill="#8b2e58" d="M 50.191406 -20.03125 L 158 28.125 L 82.75 196.574219 L -25.054688 148.414062 Z M 50.191406 -20.03125 " fill-opacity="1" fill-rule="nonzero"/></g></g></g></g></g></g></g></g><path stroke-linecap="round" transform="matrix(0.606014, 0.441867, -0.441867, 0.606014, 374.862992, 250.837537)" fill="none" stroke-linejoin="miter" d="M 7.49858 7.498832 L 359.562888 7.500008 " stroke="#8b2e58" stroke-width="15" stroke-opacity="1" stroke-miterlimit="4"/><path stroke-linecap="round" transform="matrix(-0.608907, 0.437872, -0.437872, -0.608907, 383.088586, 260.327088)" fill="none" stroke-linejoin="miter" d="M 7.498362 7.501046 L 274.228109 7.501893 " stroke="#8b2e58" stroke-width="15" stroke-opacity="1" stroke-miterlimit="4"/><path stroke-linecap="round" transform="matrix(-0.229175, 0.714128, -0.714128, -0.229175, 597.354982, 411.318432)" fill="none" stroke-linejoin="miter" d="M 7.50142 7.498087 L 262.199394 7.499045 " stroke="#8b2e58" stroke-width="15" stroke-opacity="1" stroke-miterlimit="4"/><path stroke-linecap="round" transform="matrix(0.749999, -0.00113499, 0.00113499, 0.749999, 374.99146, 663.863532)" fill="none" stroke-linejoin="miter" d="M 7.500045 7.500608 L 92.547025 7.499103 " stroke="#8b2e58" stroke-width="15" stroke-opacity="1" stroke-miterlimit="4"/><path stroke-linecap="round" transform="matrix(-0.588129, 0.465407, -0.465407, -0.588129, 556.480752, 611.895638)" fill="none" stroke-linejoin="miter" d="M 10.67049 37.849168 C 65.095412 -2.616682 118.735346 -2.617403 171.590292 37.847004 " stroke="#8b2e58" stroke-width="15" stroke-opacity="1" stroke-miterlimit="4"/><path stroke-linecap="round" transform="matrix(0.75, 0, 0, 0.75, 239.200114, 663.863532)" fill="none" stroke-linejoin="miter" d="M 7.498806 7.499667 L 162.238397 7.499667 " stroke="#8b2e58" stroke-width="15" stroke-opacity="1" stroke-miterlimit="4"/><path stroke-linecap="round" transform="matrix(0.270435, 0.699546, -0.699546, 0.270435, 365.973851, 616.138934)" fill="none" stroke-linejoin="miter" d="M 7.499557 7.502137 L 71.102525 7.498371 " stroke="#8b2e58" stroke-width="15" stroke-opacity="1" stroke-miterlimit="4"/><path stroke-linecap="round" transform="matrix(0.75, 0, 0, 0.75, 299.96489, 616.902422)" fill="none" stroke-linejoin="miter" d="M 7.499938 7.499896 L 82.900983 7.499896 " stroke="#8b2e58" stroke-width="15" stroke-opacity="1" stroke-miterlimit="4"/><path stroke-linecap="round" transform="matrix(0.463992, 0.589246, -0.589246, 0.463992, 238.577218, 521.527963)" fill="none" stroke-linejoin="miter" d="M 10.698381 10.557343 C 74.136335 58.700762 124.680287 59.109882 162.330236 11.784703 " stroke="#8b2e58" stroke-width="15" stroke-opacity="1" stroke-miterlimit="4"/><path stroke-linecap="round" transform="matrix(0.75, 0, 0, 0.75, 232.164572, 526.518042)" fill="none" stroke-linejoin="miter" d="M 7.499321 7.501986 L 82.900366 7.501986 " stroke="#8b2e58" stroke-width="15" stroke-opacity="1" stroke-miterlimit="4"/><path stroke-linecap="round" transform="matrix(0.681962, -0.312133, 0.312133, 0.681962, 280.112859, 528.510042)" fill="none" stroke-linejoin="miter" d="M 10.256079 10.006463 C 43.291971 25.831475 75.874703 25.851857 108.001304 10.049066 " stroke="#8b2e58" stroke-width="15" stroke-opacity="1" stroke-miterlimit="4"/><path stroke-linecap="round" transform="matrix(0.748705, -0.0440611, 0.0440611, 0.748705, 346.8906, 467.352477)" fill="none" stroke-linejoin="miter" d="M 10.757562 46.377536 C 70.605529 -5.482539 130.44694 -5.456508 190.292501 46.451043 " stroke="#8b2e58" stroke-width="15" stroke-opacity="1" stroke-miterlimit="4"/><path stroke-linecap="round" transform="matrix(0.0887923, 0.744725, -0.744725, 0.0887923, 524.362057, 482.92694)" fill="none" stroke-linejoin="miter" d="M 10.671908 44.349758 C 67.941474 -4.589289 119.163032 -4.781741 164.346925 43.773635 " stroke="#8b2e58" stroke-width="15" stroke-opacity="1" stroke-miterlimit="4"/><path stroke-linecap="round" transform="matrix(0.321008, -0.67783, 0.67783, 0.321008, 406.453279, 598.259055)" fill="none" stroke-linejoin="miter" d="M 10.124995 43.048146 C 35.333592 -5.294286 88.664702 -4.329877 170.116094 45.936666 " stroke="#8b2e58" stroke-width="15" stroke-opacity="1" stroke-miterlimit="4"/><path stroke-linecap="round" transform="matrix(0.746448, 0.0729032, -0.0729032, 0.746448, 429.356622, 593.696415)" fill="none" stroke-linejoin="miter" d="M 10.728845 10.473991 C 41.905472 43.778289 73.081892 43.752896 104.261772 10.381755 " stroke="#8b2e58" stroke-width="15" stroke-opacity="1" stroke-miterlimit="4"/><path stroke-linecap="round" transform="matrix(-0.149933, 0.734861, -0.734861, -0.149933, 552.815712, 388.513359)" fill="none" stroke-linejoin="miter" d="M 10.544822 53.752131 C 56.390037 -8.082876 107.092185 -7.918572 162.64106 54.247125 " stroke="#8b2e58" stroke-width="15" stroke-opacity="1" stroke-miterlimit="4"/><path stroke-linecap="round" transform="matrix(0.746503, -0.0723402, 0.0723402, 0.746503, 280.878827, 369.500978)" fill="none" stroke-linejoin="miter" d="M 10.077792 58.053913 C 146.646739 -8.578986 245.007388 -9.345318 305.164921 55.755419 " stroke="#8b2e58" stroke-width="15" stroke-opacity="1" stroke-miterlimit="4"/><path stroke-linecap="round" transform="matrix(-0.233178, -0.712831, 0.712831, -0.233178, 186.977878, 522.896299)" fill="none" stroke-linejoin="miter" d="M 7.501008 7.498848 L 149.512579 7.49983 " stroke="#8b2e58" stroke-width="15" stroke-opacity="1" stroke-miterlimit="4"/><path stroke-linecap="round" transform="matrix(-0.691499, -0.290394, 0.290394, -0.691499, 206.083236, 441.008615)" fill="none" stroke-linejoin="miter" d="M 7.500835 7.49948 L 73.30078 7.501587 " stroke="#8b2e58" stroke-width="15" stroke-opacity="1" stroke-miterlimit="4"/><path stroke-linecap="round" transform="matrix(-0.749963, 0.00743357, -0.00743357, -0.749963, 249.452686, 438.946367)" fill="none" stroke-linejoin="miter" d="M 7.498384 7.497969 L 61.396838 7.500929 " stroke="#8b2e58" stroke-width="15" stroke-opacity="1" stroke-miterlimit="4"/><path stroke-linecap="round" transform="matrix(0.508838, 0.550984, -0.550984, 0.508838, 265.891631, 375.305891)" fill="none" stroke-linejoin="miter" d="M 7.498168 7.500699 L 57.757136 7.49973 " stroke="#8b2e58" stroke-width="15" stroke-opacity="1" stroke-miterlimit="4"/><path stroke-linecap="round" transform="matrix(-0.273184, 0.698477, -0.698477, -0.273184, 270.266123, 381.172501)" fill="none" stroke-linejoin="miter" d="M 7.500461 7.497238 L 76.026941 7.500597 " stroke="#8b2e58" stroke-width="15" stroke-opacity="1" stroke-miterlimit="4"/><path stroke-linecap="round" transform="matrix(-0.233178, -0.712831, 0.712831, -0.233178, 238.701159, 676.434587)" fill="none" stroke-linejoin="miter" d="M 7.500286 7.497736 L 149.511857 7.498718 " stroke="#8b2e58" stroke-width="15" stroke-opacity="1" stroke-miterlimit="4"/><g clip-path="url(#e3b3012dbf)"><g clip-path="url(#a371c5046a)"><g transform="matrix(1, 0, 0, 1, 192, 456)"><g clip-path="url(#011ffbef13)"><g clip-path="url(#e2506f58ab)"><g clip-path="url(#1d9928b953)"><path fill="#8b2e58" d="M 0.332031 0.953125 L 22.4375 0.953125 L 22.4375 23.0625 L 0.332031 23.0625 Z M 0.332031 0.953125 " fill-opacity="1" fill-rule="nonzero"/></g></g></g></g></g></g><g clip-path="url(#d851f2ca9a)"><g clip-path="url(#65376aa96d)"><g transform="matrix(1, 0, 0, 1, 236, 456)"><g clip-path="url(#9b7478ef1c)"><g clip-path="url(#4eee5a520f)"><g clip-path="url(#5b30818a7e)"><path fill="#8b2e58" d="M 0.0703125 0.953125 L 22.179688 0.953125 L 22.179688 23.0625 L 0.0703125 23.0625 Z M 0.0703125 0.953125 " fill-opacity="1" fill-rule="nonzero"/></g></g></g></g></g></g><g clip-path="url(#9dc7bb2ac7)"><g clip-path="url(#185c36ed39)"><g transform="matrix(1, 0, 0, 1, 367, 512)"><g clip-path="url(#ba4ce307f5)"><g clip-path="url(#19064bfec0)"><g clip-path="url(#a127e6cc9a)"><path fill="#8b2e58" d="M 0.164062 0.664062 L 22.269531 0.664062 L 22.269531 22.773438 L 0.164062 22.773438 Z M 0.164062 0.664062 " fill-opacity="1" fill-rule="nonzero"/></g></g></g></g></g></g></svg>