<svg xmlns="http://www.w3.org/2000/svg" xmlns:xlink="http://www.w3.org/1999/xlink" width="1000" zoomAndPan="magnify" viewBox="0 0 750 749.999995" height="1000" preserveAspectRatio="xMidYMid meet" version="1.0"><defs><clipPath id="ae6f350d61"><path d="M 337.300781 1.015625 L 467.617188 1.015625 L 467.617188 205 L 337.300781 205 Z M 337.300781 1.015625 " clip-rule="nonzero"/></clipPath><clipPath id="31c4ca93f8"><path d="M 402.457031 1.015625 C 366.472656 1.015625 337.300781 46.640625 337.300781 102.921875 C 337.300781 159.203125 366.472656 204.828125 402.457031 204.828125 C 438.445312 204.828125 467.617188 159.203125 467.617188 102.921875 C 467.617188 46.640625 438.445312 1.015625 402.457031 1.015625 Z M 402.457031 1.015625 " clip-rule="nonzero"/></clipPath><clipPath id="90f05a1f04"><path d="M 0.300781 0.015625 L 130.617188 0.015625 L 130.617188 203.878906 L 0.300781 203.878906 Z M 0.300781 0.015625 " clip-rule="nonzero"/></clipPath><clipPath id="6a19afa550"><path d="M 65.457031 0.015625 C 29.472656 0.015625 0.300781 45.640625 0.300781 101.921875 C 0.300781 158.203125 29.472656 203.828125 65.457031 203.828125 C 101.445312 203.828125 130.617188 158.203125 130.617188 101.921875 C 130.617188 45.640625 101.445312 0.015625 65.457031 0.015625 Z M 65.457031 0.015625 " clip-rule="nonzero"/></clipPath><clipPath id="fef35137f7"><rect x="0" width="131" y="0" height="204"/></clipPath><clipPath id="87522d8d44"><path d="M 176.382812 1.015625 L 306.699219 1.015625 L 306.699219 205 L 176.382812 205 Z M 176.382812 1.015625 " clip-rule="nonzero"/></clipPath><clipPath id="38f9bace20"><path d="M 241.542969 1.015625 C 205.554688 1.015625 176.382812 46.640625 176.382812 102.921875 C 176.382812 159.203125 205.554688 204.828125 241.542969 204.828125 C 277.527344 204.828125 306.699219 159.203125 306.699219 102.921875 C 306.699219 46.640625 277.527344 1.015625 241.542969 1.015625 Z M 241.542969 1.015625 " clip-rule="nonzero"/></clipPath><clipPath id="b9718de7fe"><path d="M 0.382812 0.015625 L 130.699219 0.015625 L 130.699219 203.878906 L 0.382812 203.878906 Z M 0.382812 0.015625 " clip-rule="nonzero"/></clipPath><clipPath id="7afcd521b2"><path d="M 65.542969 0.015625 C 29.554688 0.015625 0.382812 45.640625 0.382812 101.921875 C 0.382812 158.203125 29.554688 203.828125 65.542969 203.828125 C 101.527344 203.828125 130.699219 158.203125 130.699219 101.921875 C 130.699219 45.640625 101.527344 0.015625 65.542969 0.015625 Z M 65.542969 0.015625 " clip-rule="nonzero"/></clipPath><clipPath id="822a09d1d9"><rect x="0" width="131" y="0" height="204"/></clipPath><clipPath id="71e310cb98"><path d="M 27 127 L 170 127 L 170 316 L 27 316 Z M 27 127 " clip-rule="nonzero"/></clipPath><clipPath id="f4b90495e5"><path d="M 0.316406 156.65625 L 115.890625 104.96875 L 196.859375 286.003906 L 81.285156 337.695312 Z M 0.316406 156.65625 " clip-rule="nonzero"/></clipPath><clipPath id="1eb73262c8"><path d="M 58.105469 130.8125 C 26.1875 145.085938 18.414062 197.121094 40.738281 247.039062 C 63.0625 296.953125 107.035156 325.847656 138.949219 311.574219 C 170.863281 297.300781 178.640625 245.265625 156.316406 195.347656 C 133.988281 145.433594 90.019531 116.539062 58.105469 130.8125 Z M 58.105469 130.8125 " clip-rule="nonzero"/></clipPath><clipPath id="74f15c3f80"><path d="M 0 0 L 143 0 L 143 189 L 0 189 Z M 0 0 " clip-rule="nonzero"/></clipPath><clipPath id="84a153694e"><path d="M -26.683594 29.65625 L 88.890625 -22.03125 L 169.859375 159.003906 L 54.285156 210.695312 Z M -26.683594 29.65625 " clip-rule="nonzero"/></clipPath><clipPath id="2f6ad42ea7"><path d="M 31.105469 3.8125 C -0.8125 18.085938 -8.585938 70.121094 13.738281 120.039062 C 36.0625 169.953125 80.035156 198.847656 111.949219 184.574219 C 143.863281 170.300781 151.640625 118.265625 129.316406 68.347656 C 106.988281 18.433594 63.019531 -10.460938 31.105469 3.8125 Z M 31.105469 3.8125 " clip-rule="nonzero"/></clipPath><clipPath id="5aa57a5435"><rect x="0" width="143" y="0" height="189"/></clipPath><clipPath id="12fa300a53"><path d="M 474 127 L 617 127 L 617 316 L 474 316 Z M 474 127 " clip-rule="nonzero"/></clipPath><clipPath id="eef8e49183"><path d="M 528.085938 104.984375 L 643.683594 156.625 L 562.792969 337.699219 L 447.195312 286.058594 Z M 528.085938 104.984375 " clip-rule="nonzero"/></clipPath><clipPath id="27346d7355"><path d="M 585.882812 130.804688 C 553.960938 116.546875 510.003906 145.457031 487.703125 195.382812 C 465.398438 245.308594 473.195312 297.34375 505.117188 311.601562 C 537.039062 325.863281 580.996094 296.949219 603.300781 247.023438 C 625.601562 197.097656 617.804688 145.066406 585.882812 130.804688 Z M 585.882812 130.804688 " clip-rule="nonzero"/></clipPath><clipPath id="d8fc133302"><path d="M 0 0 L 143 0 L 143 189 L 0 189 Z M 0 0 " clip-rule="nonzero"/></clipPath><clipPath id="e4fb3d531f"><path d="M 54.085938 -22.015625 L 169.683594 29.625 L 88.792969 210.699219 L -26.804688 159.058594 Z M 54.085938 -22.015625 " clip-rule="nonzero"/></clipPath><clipPath id="1d48d16d60"><path d="M 111.882812 3.804688 C 79.960938 -10.453125 36.003906 18.457031 13.703125 68.382812 C -8.601562 118.308594 -0.804688 170.34375 31.117188 184.601562 C 63.039062 198.863281 106.996094 169.949219 129.300781 120.023438 C 151.601562 70.097656 143.804688 18.066406 111.882812 3.804688 Z M 111.882812 3.804688 " clip-rule="nonzero"/></clipPath><clipPath id="33a6a50c7f"><rect x="0" width="143" y="0" height="189"/></clipPath><clipPath id="e327a26ff7"><path d="M 259 575 L 465 575 L 465 697.601562 L 259 697.601562 Z M 259 575 " clip-rule="nonzero"/></clipPath><clipPath id="bcf29e85c6"><path d="M 321 495 L 560 495 L 560 697.601562 L 321 697.601562 Z M 321 495 " clip-rule="nonzero"/></clipPath><clipPath id="14671ed384"><path d="M 240 526 L 396 526 L 396 697.601562 L 240 697.601562 Z M 240 526 " clip-rule="nonzero"/></clipPath><clipPath id="d57e3e3361"><path d="M 75 466 L 248 466 L 248 697.601562 L 75 697.601562 Z M 75 466 " clip-rule="nonzero"/></clipPath><clipPath id="a587daf835"><path d="M 126.128906 415.933594 L 149.832031 415.933594 L 149.832031 439.636719 L 126.128906 439.636719 Z M 126.128906 415.933594 " clip-rule="nonzero"/></clipPath><clipPath id="0e9e06a527"><path d="M 137.980469 415.933594 C 131.433594 415.933594 126.128906 421.238281 126.128906 427.785156 C 126.128906 434.332031 131.433594 439.636719 137.980469 439.636719 C 144.527344 439.636719 149.832031 434.332031 149.832031 427.785156 C 149.832031 421.238281 144.527344 415.933594 137.980469 415.933594 Z M 137.980469 415.933594 " clip-rule="nonzero"/></clipPath><clipPath id="dd32ac2964"><path d="M 0.128906 0.933594 L 23.832031 0.933594 L 23.832031 24.636719 L 0.128906 24.636719 Z M 0.128906 0.933594 " clip-rule="nonzero"/></clipPath><clipPath id="16ebe1265f"><path d="M 11.980469 0.933594 C 5.433594 0.933594 0.128906 6.238281 0.128906 12.785156 C 0.128906 19.332031 5.433594 24.636719 11.980469 24.636719 C 18.527344 24.636719 23.832031 19.332031 23.832031 12.785156 C 23.832031 6.238281 18.527344 0.933594 11.980469 0.933594 Z M 11.980469 0.933594 " clip-rule="nonzero"/></clipPath><clipPath id="7606a7b68c"><rect x="0" width="24" y="0" height="25"/></clipPath><clipPath id="7c4bcbf41d"><path d="M 173.03125 415.933594 L 196.734375 415.933594 L 196.734375 439.636719 L 173.03125 439.636719 Z M 173.03125 415.933594 " clip-rule="nonzero"/></clipPath><clipPath id="71883153e1"><path d="M 184.882812 415.933594 C 178.335938 415.933594 173.03125 421.238281 173.03125 427.785156 C 173.03125 434.332031 178.335938 439.636719 184.882812 439.636719 C 191.429688 439.636719 196.734375 434.332031 196.734375 427.785156 C 196.734375 421.238281 191.429688 415.933594 184.882812 415.933594 Z M 184.882812 415.933594 " clip-rule="nonzero"/></clipPath><clipPath id="06855040a7"><path d="M 0.03125 0.933594 L 23.734375 0.933594 L 23.734375 24.636719 L 0.03125 24.636719 Z M 0.03125 0.933594 " clip-rule="nonzero"/></clipPath><clipPath id="2c4179760a"><path d="M 11.882812 0.933594 C 5.335938 0.933594 0.03125 6.238281 0.03125 12.785156 C 0.03125 19.332031 5.335938 24.636719 11.882812 24.636719 C 18.429688 24.636719 23.734375 19.332031 23.734375 12.785156 C 23.734375 6.238281 18.429688 0.933594 11.882812 0.933594 Z M 11.882812 0.933594 " clip-rule="nonzero"/></clipPath><clipPath id="8950303d91"><rect x="0" width="24" y="0" height="25"/></clipPath><clipPath id="15eb0345a0"><path d="M 313.597656 475.667969 L 337.300781 475.667969 L 337.300781 499.375 L 313.597656 499.375 Z M 313.597656 475.667969 " clip-rule="nonzero"/></clipPath><clipPath id="dcb54954cf"><path d="M 325.449219 475.667969 C 318.902344 475.667969 313.597656 480.972656 313.597656 487.519531 C 313.597656 494.066406 318.902344 499.375 325.449219 499.375 C 331.996094 499.375 337.300781 494.066406 337.300781 487.519531 C 337.300781 480.972656 331.996094 475.667969 325.449219 475.667969 Z M 325.449219 475.667969 " clip-rule="nonzero"/></clipPath><clipPath id="77f414a3c1"><path d="M 0.597656 0.667969 L 24.300781 0.667969 L 24.300781 24.375 L 0.597656 24.375 Z M 0.597656 0.667969 " clip-rule="nonzero"/></clipPath><clipPath id="86c8c887ae"><path d="M 12.449219 0.667969 C 5.902344 0.667969 0.597656 5.972656 0.597656 12.519531 C 0.597656 19.066406 5.902344 24.375 12.449219 24.375 C 18.996094 24.375 24.300781 19.066406 24.300781 12.519531 C 24.300781 5.972656 18.996094 0.667969 12.449219 0.667969 Z M 12.449219 0.667969 " clip-rule="nonzero"/></clipPath><clipPath id="4fd37f3dfa"><rect x="0" width="25" y="0" height="25"/></clipPath><clipPath id="f0d7b93186"><rect x="0" width="644" y="0" height="698"/></clipPath></defs><g transform="matrix(1, 0, 0, 1, 53, 38)"><g clip-path="url(#f0d7b93186)"><g clip-path="url(#ae6f350d61)"><g clip-path="url(#31c4ca93f8)"><g transform="matrix(1, 0, 0, 1, 337, 1)"><g clip-path="url(#fef35137f7)"><g clip-path="url(#90f05a1f04)"><g clip-path="url(#6a19afa550)"><path fill="#ffffff" d="M 0.300781 0.015625 L 130.617188 0.015625 L 130.617188 203.628906 L 0.300781 203.628906 Z M 0.300781 0.015625 " fill-opacity="1" fill-rule="nonzero"/></g></g></g></g></g></g><g clip-path="url(#87522d8d44)"><g clip-path="url(#38f9bace20)"><g transform="matrix(1, 0, 0, 1, 176, 1)"><g clip-path="url(#822a09d1d9)"><g clip-path="url(#b9718de7fe)"><g clip-path="url(#7afcd521b2)"><path fill="#ffffff" d="M 0.382812 0.015625 L 130.699219 0.015625 L 130.699219 203.628906 L 0.382812 203.628906 Z M 0.382812 0.015625 " fill-opacity="1" fill-rule="nonzero"/></g></g></g></g></g></g><g clip-path="url(#71e310cb98)"><g clip-path="url(#f4b90495e5)"><g clip-path="url(#1eb73262c8)"><g transform="matrix(1, 0, 0, 1, 27, 127)"><g clip-path="url(#5aa57a5435)"><g clip-path="url(#74f15c3f80)"><g clip-path="url(#84a153694e)"><g clip-path="url(#2f6ad42ea7)"><path fill="#ffffff" d="M -26.683594 29.65625 L 88.890625 -22.03125 L 169.660156 158.554688 L 54.082031 210.242188 Z M -26.683594 29.65625 " fill-opacity="1" fill-rule="nonzero"/></g></g></g></g></g></g></g></g><g clip-path="url(#12fa300a53)"><g clip-path="url(#eef8e49183)"><g clip-path="url(#27346d7355)"><g transform="matrix(1, 0, 0, 1, 474, 127)"><g clip-path="url(#33a6a50c7f)"><g clip-path="url(#d8fc133302)"><g clip-path="url(#e4fb3d531f)"><g clip-path="url(#1d48d16d60)"><path fill="#ffffff" d="M 54.085938 -22.015625 L 169.683594 29.625 L 88.996094 210.246094 L -26.601562 158.605469 Z M 54.085938 -22.015625 " fill-opacity="1" fill-rule="nonzero"/></g></g></g></g></g></g></g></g><path stroke-linecap="round" transform="matrix(0.649817, 0.473805, -0.473805, 0.649817, 321.85309, 194.916639)" fill="none" stroke-linejoin="miter" d="M 7.498655 7.5009 L 359.568931 7.500568 " stroke="#ffffff" stroke-width="15" stroke-opacity="1" stroke-miterlimit="4"/><path stroke-linecap="round" transform="matrix(-0.652919, 0.469521, -0.469521, -0.652919, 330.673178, 205.092075)" fill="none" stroke-linejoin="miter" d="M 7.499713 7.502471 L 274.231137 7.499044 " stroke="#ffffff" stroke-width="15" stroke-opacity="1" stroke-miterlimit="4"/><path stroke-linecap="round" transform="matrix(-0.24574, 0.765745, -0.765745, -0.24574, 560.426677, 366.996983)" fill="none" stroke-linejoin="miter" d="M 7.501942 7.500291 L 262.197263 7.501741 " stroke="#ffffff" stroke-width="15" stroke-opacity="1" stroke-miterlimit="4"/><g clip-path="url(#e327a26ff7)"><path stroke-linecap="round" transform="matrix(0.804209, -0.00121703, 0.00121703, 0.804209, 321.990843, 637.795875)" fill="none" stroke-linejoin="miter" d="M 7.49965 7.49763 L 92.545409 7.500043 " stroke="#ffffff" stroke-width="15" stroke-opacity="1" stroke-miterlimit="4"/></g><g clip-path="url(#bcf29e85c6)"><path stroke-linecap="round" transform="matrix(-0.630639, 0.499047, -0.499047, -0.630639, 516.598071, 582.071742)" fill="none" stroke-linejoin="miter" d="M 10.670122 37.849381 C 65.09564 -2.61564 118.736799 -2.615779 171.589788 37.84595 " stroke="#ffffff" stroke-width="15" stroke-opacity="1" stroke-miterlimit="4"/></g><path stroke-linecap="round" transform="matrix(0.80421, 0, 0, 0.80421, 176.384561, 637.795875)" fill="none" stroke-linejoin="miter" d="M 7.502283 7.500844 L 162.239826 7.500844 " stroke="#ffffff" stroke-width="15" stroke-opacity="1" stroke-miterlimit="4"/><g clip-path="url(#14671ed384)"><path stroke-linecap="round" transform="matrix(0.289982, 0.750109, -0.750109, 0.289982, 312.321411, 586.621782)" fill="none" stroke-linejoin="miter" d="M 7.4996 7.499002 L 71.1036 7.5025 " stroke="#ffffff" stroke-width="15" stroke-opacity="1" stroke-miterlimit="4"/></g><path stroke-linecap="round" transform="matrix(0.80421, 0, 0, 0.80421, 241.541366, 587.440398)" fill="none" stroke-linejoin="miter" d="M 7.501593 7.500855 L 82.900748 7.500855 " stroke="#ffffff" stroke-width="15" stroke-opacity="1" stroke-miterlimit="4"/><path stroke-linecap="round" transform="matrix(0.49753, 0.631836, -0.631836, 0.49753, 175.716636, 485.172347)" fill="none" stroke-linejoin="miter" d="M 10.699135 10.554437 C 74.138675 58.703637 124.678883 59.112805 162.330396 11.784134 " stroke="#ffffff" stroke-width="15" stroke-opacity="1" stroke-miterlimit="4"/><path stroke-linecap="round" transform="matrix(0.80421, 0, 0, 0.80421, 168.840485, 490.523122)" fill="none" stroke-linejoin="miter" d="M 7.498802 7.499992 L 82.902814 7.499992 " stroke="#ffffff" stroke-width="15" stroke-opacity="1" stroke-miterlimit="4"/><path stroke-linecap="round" transform="matrix(0.731254, -0.334694, 0.334694, 0.731254, 220.254461, 492.659098)" fill="none" stroke-linejoin="miter" d="M 10.254429 10.004679 C 43.291307 25.836068 75.875016 25.851161 108.001138 10.047937 " stroke="#ffffff" stroke-width="15" stroke-opacity="1" stroke-miterlimit="4"/><path stroke-linecap="round" transform="matrix(0.802821, -0.0472458, 0.0472458, 0.802821, 291.858835, 427.081141)" fill="none" stroke-linejoin="miter" d="M 10.759041 46.376326 C 70.602898 -5.482796 130.449107 -5.45927 190.292533 46.45147 " stroke="#ffffff" stroke-width="15" stroke-opacity="1" stroke-miterlimit="4"/><path stroke-linecap="round" transform="matrix(0.0952102, 0.798554, -0.798554, 0.0952102, 482.157905, 443.781373)" fill="none" stroke-linejoin="miter" d="M 10.673476 44.350576 C 67.939623 -4.591449 119.16361 -4.784553 164.344864 43.776088 " stroke="#ffffff" stroke-width="15" stroke-opacity="1" stroke-miterlimit="4"/><path stroke-linecap="round" transform="matrix(0.344211, -0.726823, 0.726823, 0.344211, 355.726691, 567.449502)" fill="none" stroke-linejoin="miter" d="M 10.126907 43.046946 C 35.335339 -5.29224 88.663916 -4.331317 170.114717 45.934107 " stroke="#ffffff" stroke-width="15" stroke-opacity="1" stroke-miterlimit="4"/><path stroke-linecap="round" transform="matrix(0.800401, 0.0781726, -0.0781726, 0.800401, 380.28547, 562.557103)" fill="none" stroke-linejoin="miter" d="M 10.729385 10.471621 C 41.907993 43.78035 73.080984 43.75185 104.258028 10.385177 " stroke="#ffffff" stroke-width="15" stroke-opacity="1" stroke-miterlimit="4"/><path stroke-linecap="round" transform="matrix(-0.16077, 0.787976, -0.787976, -0.16077, 512.668143, 342.543586)" fill="none" stroke-linejoin="miter" d="M 10.544902 53.752471 C 56.390078 -8.084433 107.087719 -7.918696 162.637824 54.249682 " stroke="#ffffff" stroke-width="15" stroke-opacity="1" stroke-miterlimit="4"/><path stroke-linecap="round" transform="matrix(0.80046, -0.0775689, 0.0775689, 0.80046, 221.075799, 322.156974)" fill="none" stroke-linejoin="miter" d="M 10.081158 58.052578 C 146.648448 -8.574624 245.011271 -9.344425 305.163385 55.75721 " stroke="#ffffff" stroke-width="15" stroke-opacity="1" stroke-miterlimit="4"/><path stroke-linecap="round" transform="matrix(-0.250032, -0.764354, 0.764354, -0.250032, 120.387733, 486.639586)" fill="none" stroke-linejoin="miter" d="M 7.500156 7.50129 L 149.51161 7.500765 " stroke="#ffffff" stroke-width="15" stroke-opacity="1" stroke-miterlimit="4"/><path stroke-linecap="round" transform="matrix(-0.74148, -0.311384, 0.311384, -0.74148, 140.873997, 398.833133)" fill="none" stroke-linejoin="miter" d="M 7.499403 7.499109 L 73.300521 7.502878 " stroke="#ffffff" stroke-width="15" stroke-opacity="1" stroke-miterlimit="4"/><path stroke-linecap="round" transform="matrix(-0.80417, 0.00797086, -0.00797086, -0.80417, 187.378154, 396.621864)" fill="none" stroke-linejoin="miter" d="M 7.50239 7.502427 L 61.396271 7.502295 " stroke="#ffffff" stroke-width="15" stroke-opacity="1" stroke-miterlimit="4"/><path stroke-linecap="round" transform="matrix(0.545617, 0.590809, -0.590809, 0.545617, 205.005323, 328.381477)" fill="none" stroke-linejoin="miter" d="M 7.502782 7.499882 L 57.759661 7.498396 " stroke="#ffffff" stroke-width="15" stroke-opacity="1" stroke-miterlimit="4"/><path stroke-linecap="round" transform="matrix(-0.292929, 0.748963, -0.748963, -0.292929, 209.696015, 334.67216)" fill="none" stroke-linejoin="miter" d="M 7.5011 7.49825 L 76.028445 7.499002 " stroke="#ffffff" stroke-width="15" stroke-opacity="1" stroke-miterlimit="4"/><g clip-path="url(#d57e3e3361)"><path stroke-linecap="round" transform="matrix(-0.250032, -0.764354, 0.764354, -0.250032, 175.849541, 651.275594)" fill="none" stroke-linejoin="miter" d="M 7.499653 7.499986 L 149.511107 7.499461 " stroke="#ffffff" stroke-width="15" stroke-opacity="1" stroke-miterlimit="4"/></g><g clip-path="url(#a587daf835)"><g clip-path="url(#0e9e06a527)"><g transform="matrix(1, 0, 0, 1, 126, 415)"><g clip-path="url(#7606a7b68c)"><g clip-path="url(#dd32ac2964)"><g clip-path="url(#16ebe1265f)"><path fill="#ffffff" d="M 0.128906 0.933594 L 23.832031 0.933594 L 23.832031 24.636719 L 0.128906 24.636719 Z M 0.128906 0.933594 " fill-opacity="1" fill-rule="nonzero"/></g></g></g></g></g></g><g clip-path="url(#7c4bcbf41d)"><g clip-path="url(#71883153e1)"><g transform="matrix(1, 0, 0, 1, 173, 415)"><g clip-path="url(#8950303d91)"><g clip-path="url(#06855040a7)"><g clip-path="url(#2c4179760a)"><path fill="#ffffff" d="M 0.03125 0.933594 L 23.734375 0.933594 L 23.734375 24.636719 L 0.03125 24.636719 Z M 0.03125 0.933594 " fill-opacity="1" fill-rule="nonzero"/></g></g></g></g></g></g><g clip-path="url(#15eb0345a0)"><g clip-path="url(#dcb54954cf)"><g transform="matrix(1, 0, 0, 1, 313, 475)"><g clip-path="url(#4fd37f3dfa)"><g clip-path="url(#77f414a3c1)"><g clip-path="url(#86c8c887ae)"><path fill="#ffffff" d="M 0.597656 0.667969 L 24.300781 0.667969 L 24.300781 24.375 L 0.597656 24.375 Z M 0.597656 0.667969 " fill-opacity="1" fill-rule="nonzero"/></g></g></g></g></g></g></g></g></svg>