<svg xmlns="http://www.w3.org/2000/svg" xmlns:xlink="http://www.w3.org/1999/xlink" width="65" zoomAndPan="magnify" viewBox="0 0 750 749.999995" height="65" preserveAspectRatio="xMidYMid meet" version="1.0"><defs><clipPath id="45142e918a"><path d="M 390.300781 39.015625 L 520.617188 39.015625 L 520.617188 243 L 390.300781 243 Z M 390.300781 39.015625 " clip-rule="nonzero"/></clipPath><clipPath id="83eb54d35a"><path d="M 455.457031 39.015625 C 419.472656 39.015625 390.300781 84.640625 390.300781 140.921875 C 390.300781 197.203125 419.472656 242.828125 455.457031 242.828125 C 491.445312 242.828125 520.617188 197.203125 520.617188 140.921875 C 520.617188 84.640625 491.445312 39.015625 455.457031 39.015625 Z M 455.457031 39.015625 " clip-rule="nonzero"/></clipPath><clipPath id="0d2f347bb2"><path d="M 0.300781 0.015625 L 130.617188 0.015625 L 130.617188 203.878906 L 0.300781 203.878906 Z M 0.300781 0.015625 " clip-rule="nonzero"/></clipPath><clipPath id="11e7a75ade"><path d="M 65.457031 0.015625 C 29.472656 0.015625 0.300781 45.640625 0.300781 101.921875 C 0.300781 158.203125 29.472656 203.828125 65.457031 203.828125 C 101.445312 203.828125 130.617188 158.203125 130.617188 101.921875 C 130.617188 45.640625 101.445312 0.015625 65.457031 0.015625 Z M 65.457031 0.015625 " clip-rule="nonzero"/></clipPath><clipPath id="4c6d9c1679"><rect x="0" width="131" y="0" height="204"/></clipPath><clipPath id="e40186da08"><path d="M 229.382812 39.015625 L 359.699219 39.015625 L 359.699219 243 L 229.382812 243 Z M 229.382812 39.015625 " clip-rule="nonzero"/></clipPath><clipPath id="f83f29f1b3"><path d="M 294.542969 39.015625 C 258.554688 39.015625 229.382812 84.640625 229.382812 140.921875 C 229.382812 197.203125 258.554688 242.828125 294.542969 242.828125 C 330.527344 242.828125 359.699219 197.203125 359.699219 140.921875 C 359.699219 84.640625 330.527344 39.015625 294.542969 39.015625 Z M 294.542969 39.015625 " clip-rule="nonzero"/></clipPath><clipPath id="dc6014aaf0"><path d="M 0.382812 0.015625 L 130.699219 0.015625 L 130.699219 203.878906 L 0.382812 203.878906 Z M 0.382812 0.015625 " clip-rule="nonzero"/></clipPath><clipPath id="779792204b"><path d="M 65.542969 0.015625 C 29.554688 0.015625 0.382812 45.640625 0.382812 101.921875 C 0.382812 158.203125 29.554688 203.828125 65.542969 203.828125 C 101.527344 203.828125 130.699219 158.203125 130.699219 101.921875 C 130.699219 45.640625 101.527344 0.015625 65.542969 0.015625 Z M 65.542969 0.015625 " clip-rule="nonzero"/></clipPath><clipPath id="0fdb437ea5"><rect x="0" width="131" y="0" height="204"/></clipPath><clipPath id="bbdccd3ec5"><path d="M 80 165 L 223 165 L 223 354 L 80 354 Z M 80 165 " clip-rule="nonzero"/></clipPath><clipPath id="f9887865ae"><path d="M 53.316406 194.65625 L 168.890625 142.964844 L 249.859375 324.003906 L 134.285156 375.695312 Z M 53.316406 194.65625 " clip-rule="nonzero"/></clipPath><clipPath id="56d934cb31"><path d="M 111.105469 168.8125 C 79.1875 183.085938 71.414062 235.121094 93.738281 285.039062 C 116.0625 334.953125 160.035156 363.847656 191.949219 349.574219 C 223.863281 335.300781 231.640625 283.261719 209.3125 233.347656 C 186.988281 183.429688 143.019531 154.539062 111.105469 168.8125 Z M 111.105469 168.8125 " clip-rule="nonzero"/></clipPath><clipPath id="b938813755"><path d="M 0 0 L 143 0 L 143 189 L 0 189 Z M 0 0 " clip-rule="nonzero"/></clipPath><clipPath id="27d66b03aa"><path d="M -26.683594 29.65625 L 88.890625 -22.035156 L 169.859375 159.003906 L 54.285156 210.695312 Z M -26.683594 29.65625 " clip-rule="nonzero"/></clipPath><clipPath id="1efc0675ea"><path d="M 31.105469 3.8125 C -0.8125 18.085938 -8.585938 70.121094 13.738281 120.039062 C 36.0625 169.953125 80.035156 198.847656 111.949219 184.574219 C 143.863281 170.300781 151.640625 118.261719 129.3125 68.347656 C 106.988281 18.429688 63.019531 -10.460938 31.105469 3.8125 Z M 31.105469 3.8125 " clip-rule="nonzero"/></clipPath><clipPath id="ee314202be"><rect x="0" width="143" y="0" height="189"/></clipPath><clipPath id="41f8577119"><path d="M 527 165 L 670 165 L 670 354 L 527 354 Z M 527 165 " clip-rule="nonzero"/></clipPath><clipPath id="133260ba74"><path d="M 581.085938 142.984375 L 696.683594 194.625 L 615.792969 375.699219 L 500.195312 324.058594 Z M 581.085938 142.984375 " clip-rule="nonzero"/></clipPath><clipPath id="ca989494a2"><path d="M 638.882812 168.804688 C 606.960938 154.546875 563.003906 183.457031 540.703125 233.386719 C 518.398438 283.3125 526.195312 335.34375 558.117188 349.601562 C 590.039062 363.863281 633.996094 334.949219 656.300781 285.023438 C 678.601562 235.097656 670.804688 183.066406 638.882812 168.804688 Z M 638.882812 168.804688 " clip-rule="nonzero"/></clipPath><clipPath id="53dac6c4f9"><path d="M 0 0 L 143 0 L 143 189 L 0 189 Z M 0 0 " clip-rule="nonzero"/></clipPath><clipPath id="b4b8d9f457"><path d="M 54.085938 -22.015625 L 169.683594 29.625 L 88.792969 210.699219 L -26.804688 159.058594 Z M 54.085938 -22.015625 " clip-rule="nonzero"/></clipPath><clipPath id="f0d69df917"><path d="M 111.882812 3.804688 C 79.960938 -10.453125 36.003906 18.457031 13.703125 68.386719 C -8.601562 118.3125 -0.804688 170.34375 31.117188 184.601562 C 63.039062 198.863281 106.996094 169.949219 129.300781 120.023438 C 151.601562 70.097656 143.804688 18.066406 111.882812 3.804688 Z M 111.882812 3.804688 " clip-rule="nonzero"/></clipPath><clipPath id="64557aa0f2"><rect x="0" width="143" y="0" height="189"/></clipPath><clipPath id="c3e463953b"><path d="M 179.128906 453.933594 L 202.832031 453.933594 L 202.832031 477.636719 L 179.128906 477.636719 Z M 179.128906 453.933594 " clip-rule="nonzero"/></clipPath><clipPath id="4da0326b3b"><path d="M 190.980469 453.933594 C 184.433594 453.933594 179.128906 459.238281 179.128906 465.785156 C 179.128906 472.332031 184.433594 477.636719 190.980469 477.636719 C 197.527344 477.636719 202.832031 472.332031 202.832031 465.785156 C 202.832031 459.238281 197.527344 453.933594 190.980469 453.933594 Z M 190.980469 453.933594 " clip-rule="nonzero"/></clipPath><clipPath id="c3f41b78f5"><path d="M 0.128906 0.933594 L 23.832031 0.933594 L 23.832031 24.636719 L 0.128906 24.636719 Z M 0.128906 0.933594 " clip-rule="nonzero"/></clipPath><clipPath id="bf93f84508"><path d="M 11.980469 0.933594 C 5.433594 0.933594 0.128906 6.238281 0.128906 12.785156 C 0.128906 19.332031 5.433594 24.636719 11.980469 24.636719 C 18.527344 24.636719 23.832031 19.332031 23.832031 12.785156 C 23.832031 6.238281 18.527344 0.933594 11.980469 0.933594 Z M 11.980469 0.933594 " clip-rule="nonzero"/></clipPath><clipPath id="7ca660eb33"><rect x="0" width="24" y="0" height="25"/></clipPath><clipPath id="4a954083ec"><path d="M 179.128906 453.933594 L 202.824219 453.933594 L 202.824219 477.628906 L 179.128906 477.628906 Z M 179.128906 453.933594 " clip-rule="nonzero"/></clipPath><clipPath id="9cfeb6185d"><path d="M 190.976562 453.933594 C 184.429688 453.933594 179.128906 459.238281 179.128906 465.78125 C 179.128906 472.324219 184.429688 477.628906 190.976562 477.628906 C 197.519531 477.628906 202.824219 472.324219 202.824219 465.78125 C 202.824219 459.238281 197.519531 453.933594 190.976562 453.933594 Z M 190.976562 453.933594 " clip-rule="nonzero"/></clipPath><clipPath id="a35564d6a1"><path d="M 226.03125 453.933594 L 249.734375 453.933594 L 249.734375 477.636719 L 226.03125 477.636719 Z M 226.03125 453.933594 " clip-rule="nonzero"/></clipPath><clipPath id="a39c36e619"><path d="M 237.882812 453.933594 C 231.335938 453.933594 226.03125 459.238281 226.03125 465.785156 C 226.03125 472.332031 231.335938 477.636719 237.882812 477.636719 C 244.429688 477.636719 249.734375 472.332031 249.734375 465.785156 C 249.734375 459.238281 244.429688 453.933594 237.882812 453.933594 Z M 237.882812 453.933594 " clip-rule="nonzero"/></clipPath><clipPath id="ff0614d5ba"><path d="M 0.03125 0.933594 L 23.734375 0.933594 L 23.734375 24.636719 L 0.03125 24.636719 Z M 0.03125 0.933594 " clip-rule="nonzero"/></clipPath><clipPath id="587bc70df1"><path d="M 11.882812 0.933594 C 5.335938 0.933594 0.03125 6.238281 0.03125 12.785156 C 0.03125 19.332031 5.335938 24.636719 11.882812 24.636719 C 18.429688 24.636719 23.734375 19.332031 23.734375 12.785156 C 23.734375 6.238281 18.429688 0.933594 11.882812 0.933594 Z M 11.882812 0.933594 " clip-rule="nonzero"/></clipPath><clipPath id="7f992a8e6b"><rect x="0" width="24" y="0" height="25"/></clipPath><clipPath id="da8c2ee5dd"><path d="M 226.03125 453.933594 L 249.726562 453.933594 L 249.726562 477.628906 L 226.03125 477.628906 Z M 226.03125 453.933594 " clip-rule="nonzero"/></clipPath><clipPath id="853b1a5d8d"><path d="M 237.878906 453.933594 C 231.335938 453.933594 226.03125 459.238281 226.03125 465.78125 C 226.03125 472.324219 231.335938 477.628906 237.878906 477.628906 C 244.421875 477.628906 249.726562 472.324219 249.726562 465.78125 C 249.726562 459.238281 244.421875 453.933594 237.878906 453.933594 Z M 237.878906 453.933594 " clip-rule="nonzero"/></clipPath><clipPath id="811cefb58d"><path d="M 366.597656 513.667969 L 390.300781 513.667969 L 390.300781 537.375 L 366.597656 537.375 Z M 366.597656 513.667969 " clip-rule="nonzero"/></clipPath><clipPath id="2e2a543b18"><path d="M 378.449219 513.667969 C 371.902344 513.667969 366.597656 518.976562 366.597656 525.519531 C 366.597656 532.066406 371.902344 537.375 378.449219 537.375 C 384.996094 537.375 390.300781 532.066406 390.300781 525.519531 C 390.300781 518.976562 384.996094 513.667969 378.449219 513.667969 Z M 378.449219 513.667969 " clip-rule="nonzero"/></clipPath><clipPath id="7f823ebc13"><path d="M 0.597656 0.667969 L 24.300781 0.667969 L 24.300781 24.375 L 0.597656 24.375 Z M 0.597656 0.667969 " clip-rule="nonzero"/></clipPath><clipPath id="18a25445d9"><path d="M 12.449219 0.667969 C 5.902344 0.667969 0.597656 5.976562 0.597656 12.519531 C 0.597656 19.066406 5.902344 24.375 12.449219 24.375 C 18.996094 24.375 24.300781 19.066406 24.300781 12.519531 C 24.300781 5.976562 18.996094 0.667969 12.449219 0.667969 Z M 12.449219 0.667969 " clip-rule="nonzero"/></clipPath><clipPath id="b653f7203f"><rect x="0" width="25" y="0" height="25"/></clipPath><clipPath id="5ee008c671"><path d="M 366.597656 513.667969 L 390.292969 513.667969 L 390.292969 537.363281 L 366.597656 537.363281 Z M 366.597656 513.667969 " clip-rule="nonzero"/></clipPath><clipPath id="0de431051e"><path d="M 378.445312 513.667969 C 371.898438 513.667969 366.597656 518.972656 366.597656 525.515625 C 366.597656 532.058594 371.898438 537.363281 378.445312 537.363281 C 384.988281 537.363281 390.292969 532.058594 390.292969 525.515625 C 390.292969 518.972656 384.988281 513.667969 378.445312 513.667969 Z M 378.445312 513.667969 " clip-rule="nonzero"/></clipPath></defs><rect x="-75" width="900" fill="#ffffff" y="-74.999999" height="899.999994" fill-opacity="1"/><rect x="-75" width="900" fill="#ffffff" y="-74.999999" height="899.999994" fill-opacity="1"/><g clip-path="url(#45142e918a)"><g clip-path="url(#83eb54d35a)"><g transform="matrix(1, 0, 0, 1, 390, 39)"><g clip-path="url(#4c6d9c1679)"><g clip-path="url(#0d2f347bb2)"><g clip-path="url(#11e7a75ade)"><path fill="#8b2e58" d="M 0.300781 0.015625 L 130.617188 0.015625 L 130.617188 203.628906 L 0.300781 203.628906 Z M 0.300781 0.015625 " fill-opacity="1" fill-rule="nonzero"/></g></g></g></g></g></g><g clip-path="url(#e40186da08)"><g clip-path="url(#f83f29f1b3)"><g transform="matrix(1, 0, 0, 1, 229, 39)"><g clip-path="url(#0fdb437ea5)"><g clip-path="url(#dc6014aaf0)"><g clip-path="url(#779792204b)"><path fill="#8b2e58" d="M 0.382812 0.015625 L 130.699219 0.015625 L 130.699219 203.628906 L 0.382812 203.628906 Z M 0.382812 0.015625 " fill-opacity="1" fill-rule="nonzero"/></g></g></g></g></g></g><g clip-path="url(#bbdccd3ec5)"><g clip-path="url(#f9887865ae)"><g clip-path="url(#56d934cb31)"><g transform="matrix(1, 0, 0, 1, 80, 165)"><g clip-path="url(#ee314202be)"><g clip-path="url(#b938813755)"><g clip-path="url(#27d66b03aa)"><g clip-path="url(#1efc0675ea)"><path fill="#8b2e58" d="M -26.683594 29.65625 L 88.890625 -22.035156 L 169.65625 158.550781 L 54.082031 210.242188 Z M -26.683594 29.65625 " fill-opacity="1" fill-rule="nonzero"/></g></g></g></g></g></g></g></g><g clip-path="url(#41f8577119)"><g clip-path="url(#133260ba74)"><g clip-path="url(#ca989494a2)"><g transform="matrix(1, 0, 0, 1, 527, 165)"><g clip-path="url(#64557aa0f2)"><g clip-path="url(#53dac6c4f9)"><g clip-path="url(#b4b8d9f457)"><g clip-path="url(#f0d69df917)"><path fill="#8b2e58" d="M 54.085938 -22.015625 L 169.683594 29.625 L 88.996094 210.246094 L -26.601562 158.609375 Z M 54.085938 -22.015625 " fill-opacity="1" fill-rule="nonzero"/></g></g></g></g></g></g></g></g><path stroke-linecap="round" transform="matrix(0.606014, 0.441867, -0.441867, 0.606014, 376.822923, 230.215058)" fill="none" stroke-linejoin="miter" d="M 12.499412 12.498652 L 381.096489 12.498836 " stroke="#8b2e58" stroke-width="25" stroke-opacity="1" stroke-miterlimit="4"/><path stroke-linecap="round" transform="matrix(-0.608907, 0.437872, -0.437872, -0.608907, 385.623089, 245.807206)" fill="none" stroke-linejoin="miter" d="M 12.498218 12.500847 L 289.590413 12.499006 " stroke="#8b2e58" stroke-width="25" stroke-opacity="1" stroke-miterlimit="4"/><path stroke-linecap="round" transform="matrix(-0.229175, 0.714128, -0.714128, -0.229175, 616.613637, 406.016136)" fill="none" stroke-linejoin="miter" d="M 12.499337 12.497596 L 276.692984 12.498008 " stroke="#8b2e58" stroke-width="25" stroke-opacity="1" stroke-miterlimit="4"/><path stroke-linecap="round" transform="matrix(0.749999, -0.00113499, 0.00113499, 0.749999, 374.985805, 672.452507)" fill="none" stroke-linejoin="miter" d="M 12.500027 12.498922 L 94.776168 12.498432 " stroke="#8b2e58" stroke-width="25" stroke-opacity="1" stroke-miterlimit="4"/><path stroke-linecap="round" transform="matrix(-0.588129, 0.465407, -0.465407, -0.588129, 573.298919, 621.403694)" fill="none" stroke-linejoin="miter" d="M 17.846192 42.398857 C 73.723122 2.557328 128.828713 2.534189 183.159734 42.333524 " stroke="#8b2e58" stroke-width="25" stroke-opacity="1" stroke-miterlimit="4"/><path stroke-linecap="round" transform="matrix(0.75, 0, 0, 0.75, 229.384561, 672.452507)" fill="none" stroke-linejoin="miter" d="M 12.497669 12.500824 L 169.508093 12.500824 " stroke="#8b2e58" stroke-width="25" stroke-opacity="1" stroke-miterlimit="4"/><path stroke-linecap="round" transform="matrix(0.270435, 0.699546, -0.699546, 0.270435, 368.441586, 623.413934)" fill="none" stroke-linejoin="miter" d="M 12.500652 12.499648 L 71.785011 12.501558 " stroke="#8b2e58" stroke-width="25" stroke-opacity="1" stroke-miterlimit="4"/><path stroke-linecap="round" transform="matrix(0.75, 0, 0, 0.75, 294.541395, 622.09703)" fill="none" stroke-linejoin="miter" d="M 12.502099 12.500836 L 84.434395 12.500836 " stroke="#8b2e58" stroke-width="25" stroke-opacity="1" stroke-miterlimit="4"/><path stroke-linecap="round" transform="matrix(0.463992, 0.589246, -0.589246, 0.463992, 229.482546, 519.914227)" fill="none" stroke-linejoin="miter" d="M 17.722698 17.406181 C 82.539648 65.263216 134.620207 65.993996 173.976651 19.608186 " stroke="#8b2e58" stroke-width="25" stroke-opacity="1" stroke-miterlimit="4"/><path stroke-linecap="round" transform="matrix(0.75, 0, 0, 0.75, 221.840485, 525.179706)" fill="none" stroke-linejoin="miter" d="M 12.499145 12.499975 L 84.436649 12.499975 " stroke="#8b2e58" stroke-width="25" stroke-opacity="1" stroke-miterlimit="4"/><path stroke-linecap="round" transform="matrix(0.681962, -0.312133, 0.312133, 0.681962, 270.581209, 528.649674)" fill="none" stroke-linejoin="miter" d="M 17.185329 16.518823 C 49.836403 30.982018 82.072124 31.009685 113.89249 16.601822 " stroke="#8b2e58" stroke-width="25" stroke-opacity="1" stroke-miterlimit="4"/><path stroke-linecap="round" transform="matrix(0.748705, -0.0440611, 0.0440611, 0.748705, 342.40068, 461.876901)" fill="none" stroke-linejoin="miter" d="M 17.869643 51.365156 C 79.829767 -0.480183 141.789453 -0.454708 203.7487 51.441582 " stroke="#8b2e58" stroke-width="25" stroke-opacity="1" stroke-miterlimit="4"/><path stroke-linecap="round" transform="matrix(0.0887923, 0.744725, -0.744725, 0.0887923, 538.20624, 479.156805)" fill="none" stroke-linejoin="miter" d="M 17.900265 49.104119 C 76.61047 0.620079 129.352687 0.299464 176.125683 48.152619 " stroke="#8b2e58" stroke-width="25" stroke-opacity="1" stroke-miterlimit="4"/><path stroke-linecap="round" transform="matrix(0.321008, -0.67783, 0.67783, 0.321008, 404.389639, 606.795278)" fill="none" stroke-linejoin="miter" d="M 17.108053 46.704328 C 44.54344 -0.416337 99.751093 1.151959 182.73349 51.402279 " stroke="#8b2e58" stroke-width="25" stroke-opacity="1" stroke-miterlimit="4"/><path stroke-linecap="round" transform="matrix(0.746448, 0.0729032, -0.0729032, 0.746448, 430.954254, 598.160031)" fill="none" stroke-linejoin="miter" d="M 18.052588 17.358833 C 49.38604 48.732495 80.71949 48.707465 112.05243 17.27856 " stroke="#8b2e58" stroke-width="25" stroke-opacity="1" stroke-miterlimit="4"/><path stroke-linecap="round" transform="matrix(-0.149933, 0.734861, -0.734861, -0.149933, 569.487983, 378.519522)" fill="none" stroke-linejoin="miter" d="M 17.663647 58.540779 C 65.28079 -3.102927 117.740186 -2.845323 175.045898 59.307444 " stroke="#8b2e58" stroke-width="25" stroke-opacity="1" stroke-miterlimit="4"/><path stroke-linecap="round" transform="matrix(0.746503, -0.0723402, 0.0723402, 0.746503, 272.266924, 356.973459)" fill="none" stroke-linejoin="miter" d="M 16.814584 64.76125 C 158.920734 -3.663629 262.051999 -4.899089 326.197007 61.064235 " stroke="#8b2e58" stroke-width="25" stroke-opacity="1" stroke-miterlimit="4"/><path stroke-linecap="round" transform="matrix(-0.233178, -0.712831, 0.712831, -0.233178, 170.215643, 525.68325)" fill="none" stroke-linejoin="miter" d="M 12.498585 12.499023 L 155.864022 12.499003 " stroke="#8b2e58" stroke-width="25" stroke-opacity="1" stroke-miterlimit="4"/><path stroke-linecap="round" transform="matrix(-0.691499, -0.290394, 0.290394, -0.691499, 192.582195, 439.916327)" fill="none" stroke-linejoin="miter" d="M 12.496659 12.498696 L 74.143938 12.499181 " stroke="#8b2e58" stroke-width="25" stroke-opacity="1" stroke-miterlimit="4"/><path stroke-linecap="round" transform="matrix(-0.749963, 0.00743357, -0.00743357, -0.749963, 240.403349, 437.965175)" fill="none" stroke-linejoin="miter" d="M 12.497855 12.499927 L 61.375257 12.499997 " stroke="#8b2e58" stroke-width="25" stroke-opacity="1" stroke-miterlimit="4"/><path stroke-linecap="round" transform="matrix(0.508838, 0.550984, -0.550984, 0.508838, 257.982441, 366.402249)" fill="none" stroke-linejoin="miter" d="M 7.997445 7.998987 L 61.975472 8.001238 " stroke="#8b2e58" stroke-width="16" stroke-opacity="1" stroke-miterlimit="4"/><path stroke-linecap="round" transform="matrix(-0.273184, 0.698477, -0.698477, -0.273184, 265.815107, 373.886368)" fill="none" stroke-linejoin="miter" d="M 12.501393 12.501425 L 77.066297 12.499487 " stroke="#8b2e58" stroke-width="25" stroke-opacity="1" stroke-miterlimit="4"/><path stroke-linecap="round" transform="matrix(-0.233178, -0.712831, 0.712831, -0.233178, 225.677483, 690.319258)" fill="none" stroke-linejoin="miter" d="M 12.498058 12.497585 L 155.861876 12.502515 " stroke="#8b2e58" stroke-width="25" stroke-opacity="1" stroke-miterlimit="4"/><g clip-path="url(#c3e463953b)"><g clip-path="url(#4da0326b3b)"><g transform="matrix(1, 0, 0, 1, 179, 453)"><g clip-path="url(#7ca660eb33)"><g clip-path="url(#c3f41b78f5)"><g clip-path="url(#bf93f84508)"><path fill="#8b2e58" d="M 0.128906 0.933594 L 23.832031 0.933594 L 23.832031 24.636719 L 0.128906 24.636719 Z M 0.128906 0.933594 " fill-opacity="1" fill-rule="nonzero"/></g></g></g></g></g></g><g clip-path="url(#4a954083ec)"><g clip-path="url(#9cfeb6185d)"><path stroke-linecap="butt" transform="matrix(0.75, 0, 0, 0.75, 179.127064, 453.93223)" fill="none" stroke-linejoin="miter" d="M 15.799334 0.0018185 C 7.070166 0.0018185 0.00245697 7.074736 0.00245697 15.798695 C 0.00245697 24.522655 7.070166 31.595572 15.799334 31.595572 C 24.523293 31.595572 31.596211 24.522655 31.596211 15.798695 C 31.596211 7.074736 24.523293 0.0018185 15.799334 0.0018185 Z M 15.799334 0.0018185 " stroke="#8b2e58" stroke-width="50" stroke-opacity="1" stroke-miterlimit="4"/></g></g><g clip-path="url(#a35564d6a1)"><g clip-path="url(#a39c36e619)"><g transform="matrix(1, 0, 0, 1, 226, 453)"><g clip-path="url(#7f992a8e6b)"><g clip-path="url(#ff0614d5ba)"><g clip-path="url(#587bc70df1)"><path fill="#8b2e58" d="M 0.03125 0.933594 L 23.734375 0.933594 L 23.734375 24.636719 L 0.03125 24.636719 Z M 0.03125 0.933594 " fill-opacity="1" fill-rule="nonzero"/></g></g></g></g></g></g><g clip-path="url(#da8c2ee5dd)"><g clip-path="url(#853b1a5d8d)"><path stroke-linecap="butt" transform="matrix(0.75, 0, 0, 0.75, 226.030422, 453.93223)" fill="none" stroke-linejoin="miter" d="M 15.797981 0.0018185 C 7.074021 0.0018185 0.00110395 7.074736 0.00110395 15.798695 C 0.00110395 24.522655 7.074021 31.595572 15.797981 31.595572 C 24.52194 31.595572 31.594858 24.522655 31.594858 15.798695 C 31.594858 7.074736 24.52194 0.0018185 15.797981 0.0018185 Z M 15.797981 0.0018185 " stroke="#8b2e58" stroke-width="50" stroke-opacity="1" stroke-miterlimit="4"/></g></g><g clip-path="url(#811cefb58d)"><g clip-path="url(#2e2a543b18)"><g transform="matrix(1, 0, 0, 1, 366, 513)"><g clip-path="url(#b653f7203f)"><g clip-path="url(#7f823ebc13)"><g clip-path="url(#18a25445d9)"><path fill="#8b2e58" d="M 0.597656 0.667969 L 24.300781 0.667969 L 24.300781 24.375 L 0.597656 24.375 Z M 0.597656 0.667969 " fill-opacity="1" fill-rule="nonzero"/></g></g></g></g></g></g><g clip-path="url(#5ee008c671)"><g clip-path="url(#0de431051e)"><path stroke-linecap="butt" transform="matrix(0.75, 0, 0, 0.75, 366.595912, 513.667915)" fill="none" stroke-linejoin="miter" d="M 15.799202 0.0000717103 C 7.070035 0.0000717103 0.00232569 7.072989 0.00232569 15.796948 C 0.00232569 24.520908 7.070035 31.593825 15.799202 31.593825 C 24.523162 31.593825 31.596079 24.520908 31.596079 15.796948 C 31.596079 7.072989 24.523162 0.0000717103 15.799202 0.0000717103 Z M 15.799202 0.0000717103 " stroke="#8b2e58" stroke-width="50" stroke-opacity="1" stroke-miterlimit="4"/></g></g></svg>