<svg xmlns="http://www.w3.org/2000/svg" xmlns:xlink="http://www.w3.org/1999/xlink" width="18" zoomAndPan="magnify" viewBox="0 0 750 749.999995" height="18" preserveAspectRatio="xMidYMid meet" version="1.0"><defs><clipPath id="29c3a81b31"><path d="M 46.875 46.875 L 703.125 46.875 L 703.125 703.125 L 46.875 703.125 Z M 46.875 46.875 " clip-rule="nonzero"/></clipPath></defs><g clip-path="url(#29c3a81b31)"><path fill="#8b2e58" d="M 670.300781 178.121094 L 604.679688 178.121094 L 604.679688 473.429688 L 178.121094 473.429688 L 178.121094 539.054688 C 178.121094 557.101562 192.886719 571.867188 210.933594 571.867188 L 571.867188 571.867188 L 703.113281 703.113281 L 703.113281 210.933594 C 703.113281 192.886719 688.347656 178.121094 670.300781 178.121094 Z M 539.054688 374.996094 L 539.054688 79.6875 C 539.054688 61.640625 524.289062 46.875 506.242188 46.875 L 79.6875 46.875 C 61.640625 46.875 46.875 61.640625 46.875 79.6875 L 46.875 539.054688 L 178.121094 407.804688 L 506.242188 407.804688 C 524.289062 407.804688 539.054688 393.042969 539.054688 374.996094 Z M 539.054688 374.996094 " fill-opacity="1" fill-rule="nonzero"/></g></svg>