<svg xmlns="http://www.w3.org/2000/svg" xmlns:xlink="http://www.w3.org/1999/xlink" width="20" zoomAndPan="magnify" viewBox="0 0 750 749.999995" height="20" preserveAspectRatio="xMidYMid meet" version="1.0"><defs><clipPath id="3f9cc7c8b3"><path d="M 126.457031 206 L 623 206 L 623 675.0625 L 126.457031 675.0625 Z M 126.457031 206 " clip-rule="nonzero"/></clipPath></defs><g clip-path="url(#3f9cc7c8b3)"><path fill="#ffffff" d="M 620.171875 417.265625 L 385.578125 210.039062 C 379.492188 204.667969 370.367188 204.667969 364.285156 210.039062 L 129.691406 417.265625 C 127.964844 418.792969 126.972656 420.988281 126.972656 423.296875 L 126.972656 667.023438 C 126.972656 671.464844 130.574219 675.0625 135.015625 675.0625 L 299.917969 675.0625 C 304.355469 675.0625 307.960938 671.464844 307.960938 667.023438 L 307.960938 511.355469 C 307.960938 493.597656 322.351562 479.199219 340.113281 479.199219 L 409.746094 479.199219 C 427.507812 479.199219 441.902344 493.597656 441.902344 511.355469 L 441.902344 667.023438 C 441.902344 671.464844 445.503906 675.0625 449.941406 675.0625 L 614.847656 675.0625 C 619.285156 675.0625 622.886719 671.464844 622.886719 667.023438 L 622.886719 423.296875 C 622.886719 420.988281 621.894531 418.792969 620.171875 417.265625 " fill-opacity="1" fill-rule="nonzero"/></g><path fill="#ffffff" d="M 684.800781 336.855469 L 417.386719 101.839844 C 393.101562 80.5 356.753906 80.5 332.472656 101.839844 L 65.0625 336.855469 C 51.878906 348.449219 51.226562 368.757812 63.636719 381.167969 C 74.976562 392.507812 93.171875 393.082031 105.199219 382.484375 L 353.675781 163.636719 C 365.824219 152.933594 384.035156 152.933594 396.183594 163.632812 L 644.660156 382.484375 C 656.691406 393.082031 674.886719 392.507812 686.226562 381.167969 C 698.636719 368.757812 697.984375 348.445312 684.800781 336.855469 " fill-opacity="1" fill-rule="nonzero"/></svg>