<svg xmlns="http://www.w3.org/2000/svg" xmlns:xlink="http://www.w3.org/1999/xlink" width="20" zoomAndPan="magnify" viewBox="0 0 750 749.999995" height="20" preserveAspectRatio="xMidYMid meet" version="1.0"><path fill="#ffffff" d="M 519.925781 242.296875 C 519.925781 244.683594 519.867188 247.070312 519.75 249.453125 C 519.632812 251.839844 519.457031 254.21875 519.222656 256.59375 C 518.988281 258.972656 518.699219 261.339844 518.347656 263.703125 C 517.996094 266.0625 517.589844 268.414062 517.125 270.753906 C 516.65625 273.097656 516.136719 275.425781 515.554688 277.742188 C 514.976562 280.058594 514.339844 282.355469 513.644531 284.640625 C 512.953125 286.925781 512.203125 289.191406 511.398438 291.441406 C 510.59375 293.6875 509.734375 295.914062 508.824219 298.121094 C 507.910156 300.324219 506.941406 302.507812 505.921875 304.664062 C 504.902344 306.824219 503.828125 308.957031 502.703125 311.0625 C 501.578125 313.167969 500.402344 315.242188 499.171875 317.289062 C 497.945312 319.339844 496.667969 321.355469 495.34375 323.339844 C 494.015625 325.324219 492.640625 327.277344 491.21875 329.195312 C 489.796875 331.109375 488.328125 332.992188 486.816406 334.839844 C 485.300781 336.683594 483.742188 338.492188 482.136719 340.257812 C 480.535156 342.027344 478.890625 343.757812 477.203125 345.445312 C 475.511719 347.132812 473.785156 348.777344 472.015625 350.382812 C 470.246094 351.984375 468.441406 353.542969 466.59375 355.058594 C 464.75 356.574219 462.867188 358.042969 460.949219 359.464844 C 459.03125 360.886719 457.082031 362.257812 455.097656 363.585938 C 453.113281 364.914062 451.09375 366.1875 449.046875 367.417969 C 447 368.644531 444.921875 369.820312 442.816406 370.945312 C 440.710938 372.070312 438.582031 373.144531 436.421875 374.164062 C 434.265625 375.183594 432.082031 376.152344 429.878906 377.066406 C 427.671875 377.980469 425.445312 378.839844 423.195312 379.644531 C 420.949219 380.445312 418.683594 381.195312 416.398438 381.890625 C 414.113281 382.582031 411.8125 383.21875 409.5 383.796875 C 407.183594 384.378906 404.855469 384.902344 402.511719 385.367188 C 400.171875 385.832031 397.820312 386.242188 395.457031 386.589844 C 393.097656 386.941406 390.726562 387.234375 388.351562 387.46875 C 385.976562 387.703125 383.597656 387.878906 381.210938 387.996094 C 378.828125 388.113281 376.441406 388.171875 374.054688 388.171875 C 371.667969 388.171875 369.28125 388.113281 366.894531 387.996094 C 364.511719 387.878906 362.132812 387.703125 359.757812 387.46875 C 357.378906 387.234375 355.011719 386.941406 352.648438 386.589844 C 350.289062 386.242188 347.9375 385.832031 345.597656 385.367188 C 343.253906 384.902344 340.925781 384.378906 338.609375 383.796875 C 336.292969 383.21875 333.992188 382.582031 331.710938 381.890625 C 329.425781 381.195312 327.160156 380.445312 324.910156 379.644531 C 322.664062 378.839844 320.4375 377.980469 318.230469 377.066406 C 316.027344 376.152344 313.84375 375.183594 311.683594 374.164062 C 309.527344 373.144531 307.394531 372.070312 305.289062 370.945312 C 303.183594 369.820312 301.109375 368.644531 299.058594 367.417969 C 297.011719 366.1875 294.996094 364.914062 293.011719 363.585938 C 291.027344 362.257812 289.074219 360.886719 287.15625 359.464844 C 285.242188 358.042969 283.359375 356.574219 281.511719 355.058594 C 279.667969 353.542969 277.859375 351.984375 276.09375 350.382812 C 274.324219 348.777344 272.59375 347.132812 270.90625 345.445312 C 269.21875 343.757812 267.574219 342.027344 265.96875 340.257812 C 264.367188 338.492188 262.808594 336.683594 261.292969 334.839844 C 259.777344 332.992188 258.308594 331.109375 256.886719 329.195312 C 255.464844 327.277344 254.089844 325.324219 252.765625 323.339844 C 251.4375 321.355469 250.164062 319.339844 248.933594 317.289062 C 247.707031 315.242188 246.53125 313.167969 245.40625 311.0625 C 244.28125 308.957031 243.207031 306.824219 242.1875 304.664062 C 241.167969 302.507812 240.199219 300.324219 239.285156 298.121094 C 238.371094 295.914062 237.511719 293.6875 236.707031 291.441406 C 235.90625 289.191406 235.15625 286.925781 234.460938 284.640625 C 233.769531 282.355469 233.132812 280.058594 232.554688 277.742188 C 231.972656 275.425781 231.449219 273.097656 230.984375 270.753906 C 230.519531 268.414062 230.109375 266.0625 229.761719 263.703125 C 229.410156 261.339844 229.117188 258.972656 228.882812 256.59375 C 228.648438 254.21875 228.472656 251.839844 228.355469 249.453125 C 228.238281 247.070312 228.179688 244.683594 228.179688 242.296875 C 228.179688 239.910156 228.238281 237.523438 228.355469 235.140625 C 228.472656 232.753906 228.648438 230.375 228.882812 228 C 229.117188 225.625 229.410156 223.253906 229.761719 220.894531 C 230.109375 218.53125 230.519531 216.179688 230.984375 213.839844 C 231.449219 211.496094 231.972656 209.167969 232.554688 206.851562 C 233.132812 204.539062 233.769531 202.238281 234.460938 199.953125 C 235.15625 197.667969 235.90625 195.402344 236.707031 193.15625 C 237.511719 190.90625 238.371094 188.679688 239.285156 186.472656 C 240.199219 184.269531 241.167969 182.085938 242.1875 179.929688 C 243.207031 177.769531 244.28125 175.640625 245.40625 173.535156 C 246.53125 171.429688 247.707031 169.351562 248.933594 167.304688 C 250.164062 165.257812 251.4375 163.238281 252.765625 161.253906 C 254.089844 159.269531 255.464844 157.320312 256.886719 155.402344 C 258.308594 153.484375 259.777344 151.601562 261.292969 149.757812 C 262.808594 147.910156 264.367188 146.105469 265.96875 144.335938 C 267.574219 142.566406 269.21875 140.835938 270.90625 139.148438 C 272.59375 137.460938 274.324219 135.816406 276.09375 134.210938 C 277.859375 132.609375 279.667969 131.050781 281.511719 129.535156 C 283.359375 128.023438 285.242188 126.554688 287.15625 125.132812 C 289.074219 123.710938 291.027344 122.335938 293.011719 121.007812 C 294.996094 119.683594 297.011719 118.40625 299.058594 117.179688 C 301.109375 115.949219 303.183594 114.773438 305.289062 113.648438 C 307.394531 112.523438 309.527344 111.449219 311.683594 110.429688 C 313.84375 109.410156 316.027344 108.441406 318.230469 107.527344 C 320.4375 106.613281 322.664062 105.757812 324.910156 104.953125 C 327.160156 104.148438 329.425781 103.398438 331.710938 102.707031 C 333.992188 102.011719 336.292969 101.375 338.609375 100.796875 C 340.925781 100.214844 343.253906 99.695312 345.597656 99.226562 C 347.9375 98.761719 350.289062 98.355469 352.648438 98.003906 C 355.011719 97.652344 357.378906 97.359375 359.757812 97.128906 C 362.132812 96.894531 364.511719 96.71875 366.894531 96.601562 C 369.28125 96.484375 371.667969 96.425781 374.054688 96.425781 C 376.441406 96.425781 378.828125 96.484375 381.210938 96.601562 C 383.597656 96.71875 385.976562 96.894531 388.351562 97.128906 C 390.726562 97.359375 393.097656 97.652344 395.457031 98.003906 C 397.820312 98.355469 400.171875 98.761719 402.511719 99.226562 C 404.855469 99.695312 407.183594 100.214844 409.5 100.796875 C 411.8125 101.375 414.113281 102.011719 416.398438 102.707031 C 418.683594 103.398438 420.949219 104.148438 423.195312 104.953125 C 425.445312 105.757812 427.671875 106.613281 429.878906 107.527344 C 432.082031 108.441406 434.265625 109.410156 436.421875 110.429688 C 438.582031 111.449219 440.710938 112.523438 442.816406 113.648438 C 444.921875 114.773438 447 115.949219 449.046875 117.179688 C 451.09375 118.40625 453.113281 119.683594 455.097656 121.007812 C 457.082031 122.335938 459.03125 123.710938 460.949219 125.132812 C 462.867188 126.554688 464.75 128.023438 466.59375 129.535156 C 468.441406 131.050781 470.246094 132.609375 472.015625 134.210938 C 473.785156 135.816406 475.511719 137.460938 477.203125 139.148438 C 478.890625 140.835938 480.535156 142.566406 482.136719 144.335938 C 483.742188 146.105469 485.300781 147.910156 486.816406 149.757812 C 488.328125 151.601562 489.796875 153.484375 491.21875 155.402344 C 492.640625 157.320312 494.015625 159.269531 495.34375 161.253906 C 496.667969 163.238281 497.945312 165.257812 499.171875 167.304688 C 500.398438 169.351562 501.578125 171.429688 502.703125 173.535156 C 503.828125 175.640625 504.902344 177.769531 505.921875 179.929688 C 506.941406 182.085938 507.910156 184.269531 508.824219 186.472656 C 509.734375 188.679688 510.59375 190.90625 511.398438 193.15625 C 512.203125 195.402344 512.953125 197.667969 513.644531 199.953125 C 514.339844 202.238281 514.976562 204.539062 515.554688 206.851562 C 516.136719 209.167969 516.65625 211.496094 517.125 213.839844 C 517.589844 216.179688 517.996094 218.53125 518.347656 220.894531 C 518.699219 223.253906 518.988281 225.625 519.222656 228 C 519.457031 230.375 519.632812 232.753906 519.75 235.140625 C 519.867188 237.523438 519.925781 239.910156 519.925781 242.296875 Z M 519.925781 242.296875 " fill-opacity="1" fill-rule="nonzero"/><path fill="#ffffff" d="M 178.011719 651.683594 L 570.097656 651.683594 C 571.519531 651.664062 572.941406 651.605469 574.359375 651.507812 C 575.777344 651.40625 577.191406 651.261719 578.601562 651.074219 C 580.011719 650.890625 581.414062 650.664062 582.8125 650.394531 C 584.207031 650.121094 585.597656 649.8125 586.972656 649.457031 C 588.351562 649.105469 589.71875 648.710938 591.070312 648.277344 C 592.425781 647.839844 593.765625 647.367188 595.09375 646.851562 C 596.417969 646.335938 597.726562 645.78125 599.019531 645.1875 C 600.3125 644.59375 601.585938 643.964844 602.839844 643.292969 C 604.09375 642.621094 605.328125 641.917969 606.539062 641.171875 C 607.753906 640.429688 608.941406 639.648438 610.109375 638.832031 C 611.273438 638.019531 612.414062 637.167969 613.527344 636.285156 C 614.644531 635.402344 615.730469 634.488281 616.789062 633.539062 C 617.851562 632.589844 618.878906 631.609375 619.882812 630.597656 C 620.882812 629.589844 621.851562 628.550781 622.792969 627.480469 C 623.730469 626.414062 624.636719 625.316406 625.507812 624.195312 C 626.382812 623.070312 627.222656 621.921875 628.027344 620.75 C 628.828125 619.578125 629.597656 618.382812 630.332031 617.160156 C 631.0625 615.941406 631.757812 614.703125 632.417969 613.441406 C 633.078125 612.179688 633.695312 610.902344 634.277344 609.605469 C 634.859375 608.304688 635.402344 606.992188 635.90625 605.660156 C 636.40625 604.332031 636.871094 602.988281 637.292969 601.628906 C 637.714844 600.269531 638.097656 598.902344 638.4375 597.519531 C 638.777344 596.140625 639.074219 594.75 639.332031 593.351562 C 639.589844 591.949219 639.804688 590.546875 639.976562 589.132812 C 640.152344 587.722656 640.28125 586.304688 640.367188 584.886719 C 640.457031 583.46875 640.503906 582.046875 640.503906 580.625 C 640.507812 579.203125 640.46875 577.78125 640.386719 576.359375 C 640.304688 574.941406 640.179688 573.523438 640.011719 572.113281 C 639.84375 570.699219 639.632812 569.292969 639.382812 567.894531 C 639.132812 566.492188 638.839844 565.101562 638.503906 563.71875 C 638.167969 562.335938 637.792969 560.964844 637.375 559.605469 C 636.957031 558.246094 636.5 556.898438 636.003906 555.566406 C 634.992188 553.011719 633.9375 550.480469 632.832031 547.964844 C 631.726562 545.449219 630.574219 542.957031 629.378906 540.484375 C 628.179688 538.011719 626.933594 535.5625 625.644531 533.140625 C 624.355469 530.714844 623.019531 528.3125 621.640625 525.9375 C 620.261719 523.5625 618.835938 521.214844 617.371094 518.894531 C 615.902344 516.570312 614.390625 514.277344 612.839844 512.011719 C 611.285156 509.746094 609.691406 507.511719 608.050781 505.304688 C 606.414062 503.101562 604.738281 500.925781 603.019531 498.785156 C 601.300781 496.640625 599.542969 494.53125 597.746094 492.453125 C 595.945312 490.378906 594.113281 488.335938 592.238281 486.328125 C 590.363281 484.320312 588.453125 482.347656 586.503906 480.410156 C 584.554688 478.472656 582.574219 476.574219 580.554688 474.710938 C 578.535156 472.847656 576.480469 471.023438 574.394531 469.238281 C 572.308594 467.453125 570.1875 465.707031 568.035156 464.003906 C 565.882812 462.296875 563.699219 460.628906 561.484375 459.007812 C 559.269531 457.382812 557.023438 455.800781 554.75 454.257812 C 552.472656 452.71875 550.171875 451.222656 547.84375 449.769531 C 545.511719 448.3125 543.15625 446.902344 540.773438 445.539062 C 538.386719 444.171875 535.980469 442.851562 533.546875 441.574219 C 531.117188 440.300781 528.660156 439.070312 526.179688 437.886719 C 523.703125 436.703125 521.203125 435.566406 518.679688 434.476562 C 516.160156 433.386719 513.621094 432.34375 511.058594 431.347656 C 508.5 430.351562 505.921875 429.40625 503.324219 428.507812 C 500.730469 427.609375 498.117188 426.761719 495.492188 425.960938 C 492.863281 425.160156 490.222656 424.40625 487.566406 423.707031 C 484.910156 423.003906 482.242188 422.351562 479.5625 421.75 C 476.882812 421.148438 474.191406 420.597656 471.492188 420.097656 C 468.789062 419.59375 466.082031 419.144531 463.363281 418.746094 C 460.648438 418.34375 457.921875 417.996094 455.191406 417.699219 C 452.460938 417.402344 449.726562 417.152344 446.988281 416.957031 C 444.246094 416.761719 441.503906 416.621094 438.757812 416.527344 C 436.011719 416.433594 433.269531 416.394531 430.519531 416.402344 L 317.585938 416.402344 C 314.84375 416.402344 312.097656 416.453125 309.355469 416.554688 C 306.613281 416.65625 303.871094 416.808594 301.136719 417.011719 C 298.398438 417.214844 295.664062 417.46875 292.9375 417.777344 C 290.210938 418.082031 287.488281 418.4375 284.773438 418.84375 C 282.058594 419.25 279.355469 419.707031 276.65625 420.214844 C 273.960938 420.722656 271.273438 421.277344 268.59375 421.886719 C 265.917969 422.492188 263.253906 423.152344 260.601562 423.855469 C 257.949219 424.5625 255.3125 425.320312 252.6875 426.125 C 250.0625 426.929688 247.453125 427.78125 244.863281 428.683594 C 242.269531 429.585938 239.695312 430.535156 237.136719 431.53125 C 234.582031 432.53125 232.042969 433.574219 229.523438 434.667969 C 227.007812 435.757812 224.511719 436.898438 222.035156 438.082031 C 219.558594 439.269531 217.105469 440.5 214.675781 441.773438 C 212.246094 443.050781 209.839844 444.371094 207.460938 445.738281 C 205.078125 447.105469 202.722656 448.515625 200.394531 449.96875 C 198.066406 451.421875 195.765625 452.917969 193.496094 454.457031 C 191.222656 455.996094 188.976562 457.578125 186.765625 459.199219 C 184.550781 460.820312 182.367188 462.484375 180.214844 464.1875 C 178.0625 465.894531 175.945312 467.636719 173.859375 469.417969 C 171.769531 471.203125 169.71875 473.023438 167.699219 474.882812 C 165.679688 476.742188 163.695312 478.636719 161.746094 480.570312 C 159.796875 482.503906 157.886719 484.472656 156.011719 486.476562 C 154.136719 488.480469 152.296875 490.519531 150.5 492.589844 C 148.699219 494.664062 146.9375 496.769531 145.21875 498.90625 C 143.496094 501.046875 141.816406 503.214844 140.175781 505.414062 C 138.535156 507.617188 136.9375 509.847656 135.378906 512.105469 C 133.820312 514.367188 132.308594 516.65625 130.835938 518.972656 C 129.363281 521.289062 127.933594 523.632812 126.550781 526.003906 C 125.164062 528.371094 123.824219 530.765625 122.527344 533.1875 C 121.234375 535.605469 119.980469 538.050781 118.777344 540.515625 C 117.574219 542.980469 116.414062 545.46875 115.300781 547.976562 C 114.191406 550.488281 113.125 553.015625 112.105469 555.566406 C 111.609375 556.898438 111.152344 558.246094 110.734375 559.605469 C 110.316406 560.964844 109.9375 562.335938 109.605469 563.71875 C 109.269531 565.101562 108.976562 566.492188 108.722656 567.890625 C 108.472656 569.292969 108.261719 570.699219 108.09375 572.109375 C 107.925781 573.523438 107.800781 574.9375 107.71875 576.359375 C 107.636719 577.777344 107.597656 579.199219 107.597656 580.621094 C 107.601562 582.046875 107.648438 583.464844 107.734375 584.886719 C 107.824219 586.304688 107.953125 587.722656 108.125 589.132812 C 108.296875 590.546875 108.511719 591.949219 108.769531 593.351562 C 109.027344 594.75 109.324219 596.140625 109.664062 597.519531 C 110.003906 598.902344 110.386719 600.269531 110.808594 601.628906 C 111.230469 602.988281 111.695312 604.332031 112.195312 605.664062 C 112.699219 606.992188 113.242188 608.308594 113.824219 609.605469 C 114.40625 610.90625 115.023438 612.183594 115.683594 613.445312 C 116.34375 614.707031 117.039062 615.945312 117.769531 617.164062 C 118.503906 618.382812 119.273438 619.582031 120.074219 620.753906 C 120.878906 621.925781 121.71875 623.074219 122.59375 624.199219 C 123.464844 625.320312 124.371094 626.417969 125.3125 627.484375 C 126.25 628.554688 127.21875 629.59375 128.222656 630.605469 C 129.222656 631.613281 130.253906 632.59375 131.3125 633.542969 C 132.371094 634.492188 133.460938 635.40625 134.574219 636.289062 C 135.691406 637.175781 136.828125 638.023438 137.996094 638.839844 C 139.160156 639.652344 140.351562 640.433594 141.5625 641.175781 C 142.777344 641.921875 144.007812 642.628906 145.265625 643.296875 C 146.519531 643.96875 147.792969 644.597656 149.085938 645.191406 C 150.378906 645.785156 151.6875 646.339844 153.011719 646.855469 C 154.339844 647.371094 155.679688 647.84375 157.035156 648.28125 C 158.386719 648.714844 159.753906 649.109375 161.132812 649.460938 C 162.511719 649.8125 163.898438 650.125 165.292969 650.394531 C 166.691406 650.664062 168.09375 650.890625 169.503906 651.078125 C 170.914062 651.261719 172.328125 651.40625 173.75 651.507812 C 175.167969 651.609375 176.589844 651.667969 178.011719 651.683594 Z M 178.011719 651.683594 " fill-opacity="1" fill-rule="nonzero"/></svg>