<svg xmlns="http://www.w3.org/2000/svg" xmlns:xlink="http://www.w3.org/1999/xlink" width="30" zoomAndPan="magnify" viewBox="0 0 750 749.999995" height="30" preserveAspectRatio="xMidYMid meet" version="1.0"><defs><clipPath id="5d30630210"><path d="M 24.367188 24.367188 L 725.617188 24.367188 L 725.617188 725.617188 L 24.367188 725.617188 Z M 24.367188 24.367188 " clip-rule="nonzero"/></clipPath></defs><g clip-path="url(#5d30630210)"><path fill="#000000" d="M 374.992188 690.171875 C 293.859375 690.171875 219.800781 658.953125 163.882812 608.421875 C 178.386719 523.734375 252.09375 460.546875 338.945312 460.546875 L 410.703125 460.546875 C 497.644531 460.546875 571.4375 523.84375 585.8125 608.628906 C 585.816406 608.644531 585.816406 608.765625 585.824219 608.777344 C 529.9375 659.164062 455.988281 690.171875 374.992188 690.171875 Z M 374.992188 198.027344 C 431.710938 198.027344 477.855469 244.171875 477.855469 300.882812 C 477.855469 357.605469 431.710938 403.75 374.992188 403.75 C 318.273438 403.75 272.128906 357.605469 272.128906 300.882812 C 272.128906 244.171875 318.273438 198.027344 374.992188 198.027344 Z M 374.992188 24.367188 C 181.65625 24.367188 24.367188 181.65625 24.367188 374.992188 C 24.367188 568.328125 181.65625 725.617188 374.992188 725.617188 C 568.328125 725.617188 725.617188 568.328125 725.617188 374.992188 C 725.617188 181.65625 568.328125 24.367188 374.992188 24.367188 " fill-opacity="1" fill-rule="nonzero"/></g></svg>